<svg version="1.1" viewBox="0.0 0.0 600.0 371.0" fill="none" stroke="none" stroke-linecap="square" stroke-miterlimit="10" width="600" height="371" xmlns:xlink="http://www.w3.org/1999/xlink" xmlns="http://www.w3.org/2000/svg"><path fill="#ffffff" d="M0 0L600.0 0L600.0 371.0L0 371.0L0 0Z" fill-rule="nonzero"/><path stroke="#333333" stroke-width="1.0" stroke-linecap="butt" d="M45.5 332.5L581.5 332.5" fill-rule="nonzero"/><path stroke="#cccccc" stroke-width="1.0" stroke-linecap="butt" d="M45.5 287.5L581.5 287.5" fill-rule="nonzero"/><path stroke="#cccccc" stroke-width="1.0" stroke-linecap="butt" d="M45.5 243.5L581.5 243.5" fill-rule="nonzero"/><path stroke="#cccccc" stroke-width="1.0" stroke-linecap="butt" d="M45.5 198.5L581.5 198.5" fill-rule="nonzero"/><path stroke="#cccccc" stroke-width="1.0" stroke-linecap="butt" d="M45.5 154.5L581.5 154.5" fill-rule="nonzero"/><path stroke="#cccccc" stroke-width="1.0" stroke-linecap="butt" d="M45.5 109.5L581.5 109.5" fill-rule="nonzero"/><clipPath id="id_0"><path d="M45.55 109.78333L581.45 109.78333L581.45 332.45L45.55 332.45L45.55 109.78333Z" clip-rule="nonzero"/></clipPath><path stroke="#000000" stroke-width="2.0" stroke-linecap="butt" stroke-opacity="0.0" clip-path="url(#id_0)" d="M273.0 332.0L125.0 332.0L125.0 233.0L273.0 233.0Z" fill-rule="nonzero"/><path fill="#1d136d" clip-path="url(#id_0)" d="M273.0 332.0L125.0 332.0L125.0 233.0L273.0 233.0Z" fill-rule="nonzero"/><path stroke="#000000" stroke-width="2.0" stroke-linecap="butt" stroke-opacity="0.0" clip-path="url(#id_0)" d="M502.0 332.0L354.0 332.0L354.0 154.0L502.0 154.0Z" fill-rule="nonzero"/><path fill="#1d136d" clip-path="url(#id_0)" d="M502.0 332.0L354.0 332.0L354.0 154.0L502.0 154.0Z" fill-rule="nonzero"/><path stroke="#000000" stroke-width="2.0" stroke-linecap="butt" stroke-opacity="0.0" clip-path="url(#id_0)" d="M273.0 233.0L125.0 233.0L125.0 208.0C125.0 206.89543 125.89543 206.0 127.0 206.0L271.0 206.0C272.10458 206.0 273.0 206.89543 273.0 208.0Z" fill-rule="nonzero"/><path fill="#00edb9" clip-path="url(#id_0)" d="M273.0 233.0L125.0 233.0L125.0 208.0C125.0 206.89543 125.89543 206.0 127.0 206.0L271.0 206.0C272.10458 206.0 273.0 206.89543 273.0 208.0Z" fill-rule="nonzero"/><path stroke="#000000" stroke-width="2.0" stroke-linecap="butt" stroke-opacity="0.0" clip-path="url(#id_0)" d="M502.0 154.0L354.0 154.0L354.0 140.0C354.0 138.89543 354.89542 138.0 356.0 138.0L500.0 138.0C501.10458 138.0 502.0 138.89543 502.0 140.0Z" fill-rule="nonzero"/><path fill="#00edb9" clip-path="url(#id_0)" d="M502.0 154.0L354.0 154.0L354.0 140.0C354.0 138.89543 354.89542 138.0 356.0 138.0L500.0 138.0C501.10458 138.0 502.0 138.89543 502.0 140.0Z" fill-rule="nonzero"/><path stroke="#1d136d" stroke-width="3.0" stroke-linejoin="round" stroke-linecap="round" d="M193.20312 282.7914L193.64062 278.5414L198.01562 278.5414L198.01562 279.5414L194.5625 279.5414L194.29688 281.86954Q194.9375 281.49454 195.73438 281.49454Q196.89062 281.49454 197.57812 282.2758Q198.26562 283.0414 198.26562 284.3539Q198.26562 285.6664 197.54688 286.43204Q196.84375 287.19766 195.5625 287.19766Q194.4375 287.19766 193.71875 286.57266Q193.0 285.93204 192.90625 284.82266L193.92188 284.82266Q194.03125 285.55704 194.45312 285.93204Q194.875 286.30704 195.5625 286.30704Q196.3125 286.30704 196.75 285.7914Q197.1875 285.2758 197.1875 284.36954Q197.1875 283.51016 196.71875 282.99454Q196.25 282.4789 195.46875 282.4789Q194.76562 282.4789 194.35938 282.7758L194.07812 283.01016L193.20312 282.7914ZM203.96875 278.5414L203.96875 279.44766L203.76562 279.44766Q202.5 279.4789 201.75 280.2133Q201.0 280.93204 200.875 282.24454Q201.5625 281.4789 202.71875 281.4789Q203.82812 281.4789 204.5 282.26016Q205.17188 283.0414 205.17188 284.2914Q205.17188 285.6039 204.45312 286.4008Q203.73438 287.19766 202.51562 287.19766Q201.29688 287.19766 200.53125 286.26016Q199.78125 285.30704 199.78125 283.82266L199.78125 283.4164Q199.78125 281.05704 200.78125 279.80704Q201.78125 278.55704 203.76562 278.5414L203.96875 278.5414ZM202.54688 282.38516Q201.98438 282.38516 201.51562 282.7133Q201.04688 283.0414 200.85938 283.55704L200.85938 283.94766Q200.85938 285.01016 201.32812 285.6508Q201.8125 286.2914 202.51562 286.2914Q203.25 286.2914 203.67188 285.76016Q204.09375 285.2133 204.09375 284.3383Q204.09375 283.4633 203.67188 282.93204Q203.25 282.38516 202.54688 282.38516Z" fill-rule="nonzero"/><path fill="#ffffff" d="M193.20312 282.7914L193.64062 278.5414L198.01562 278.5414L198.01562 279.5414L194.5625 279.5414L194.29688 281.86954Q194.9375 281.49454 195.73438 281.49454Q196.89062 281.49454 197.57812 282.2758Q198.26562 283.0414 198.26562 284.3539Q198.26562 285.6664 197.54688 286.43204Q196.84375 287.19766 195.5625 287.19766Q194.4375 287.19766 193.71875 286.57266Q193.0 285.93204 192.90625 284.82266L193.92188 284.82266Q194.03125 285.55704 194.45312 285.93204Q194.875 286.30704 195.5625 286.30704Q196.3125 286.30704 196.75 285.7914Q197.1875 285.2758 197.1875 284.36954Q197.1875 283.51016 196.71875 282.99454Q196.25 282.4789 195.46875 282.4789Q194.76562 282.4789 194.35938 282.7758L194.07812 283.01016L193.20312 282.7914ZM203.96875 278.5414L203.96875 279.44766L203.76562 279.44766Q202.5 279.4789 201.75 280.2133Q201.0 280.93204 200.875 282.24454Q201.5625 281.4789 202.71875 281.4789Q203.82812 281.4789 204.5 282.26016Q205.17188 283.0414 205.17188 284.2914Q205.17188 285.6039 204.45312 286.4008Q203.73438 287.19766 202.51562 287.19766Q201.29688 287.19766 200.53125 286.26016Q199.78125 285.30704 199.78125 283.82266L199.78125 283.4164Q199.78125 281.05704 200.78125 279.80704Q201.78125 278.55704 203.76562 278.5414L203.96875 278.5414ZM202.54688 282.38516Q201.98438 282.38516 201.51562 282.7133Q201.04688 283.0414 200.85938 283.55704L200.85938 283.94766Q200.85938 285.01016 201.32812 285.6508Q201.8125 286.2914 202.51562 286.2914Q203.25 286.2914 203.67188 285.76016Q204.09375 285.2133 204.09375 284.3383Q204.09375 283.4633 203.67188 282.93204Q203.25 282.38516 202.54688 282.38516Z" fill-rule="nonzero"/><path stroke="#1d136d" stroke-width="3.0" stroke-linejoin="round" stroke-linecap="round" d="M421.76562 247.88333L420.6875 247.88333L420.6875 240.66458L418.5 241.46146L418.5 240.47708L421.60938 239.3052L421.76562 239.3052L421.76562 247.88333ZM430.5625 244.2427Q430.5625 246.14896 429.90625 247.08646Q429.26562 248.00833 427.875 248.00833Q426.51562 248.00833 425.85938 247.10208Q425.20312 246.19583 425.17188 244.38333L425.17188 242.94583Q425.17188 241.0552 425.8125 240.14896Q426.46875 239.22708 427.85938 239.22708Q429.23438 239.22708 429.89062 240.1177Q430.54688 240.9927 430.5625 242.83646L430.5625 244.2427ZM429.46875 242.75833Q429.46875 241.38333 429.07812 240.75833Q428.70312 240.1177 427.85938 240.1177Q427.03125 240.1177 426.64062 240.75833Q426.26562 241.38333 426.26562 242.6802L426.26562 244.41458Q426.26562 245.78958 426.65625 246.46146Q427.0625 247.1177 427.875 247.1177Q428.67188 247.1177 429.0625 246.4927Q429.45312 245.8677 429.46875 244.53958L429.46875 242.75833ZM437.5625 244.2427Q437.5625 246.14896 436.90625 247.08646Q436.26562 248.00833 434.875 248.00833Q433.51562 248.00833 432.85938 247.10208Q432.20312 246.19583 432.17188 244.38333L432.17188 242.94583Q432.17188 241.0552 432.8125 240.14896Q433.46875 239.22708 434.85938 239.22708Q436.23438 239.22708 436.89062 240.1177Q437.54688 240.9927 437.5625 242.83646L437.5625 244.2427ZM436.46875 242.75833Q436.46875 241.38333 436.07812 240.75833Q435.70312 240.1177 434.85938 240.1177Q434.03125 240.1177 433.64062 240.75833Q433.26562 241.38333 433.26562 242.6802L433.26562 244.41458Q433.26562 245.78958 433.65625 246.46146Q434.0625 247.1177 434.875 247.1177Q435.67188 247.1177 436.0625 246.4927Q436.45312 245.8677 436.46875 244.53958L436.46875 242.75833Z" fill-rule="nonzero"/><path fill="#ffffff" d="M421.76562 247.88333L420.6875 247.88333L420.6875 240.66458L418.5 241.46146L418.5 240.47708L421.60938 239.3052L421.76562 239.3052L421.76562 247.88333ZM430.5625 244.2427Q430.5625 246.14896 429.90625 247.08646Q429.26562 248.00833 427.875 248.00833Q426.51562 248.00833 425.85938 247.10208Q425.20312 246.19583 425.17188 244.38333L425.17188 242.94583Q425.17188 241.0552 425.8125 240.14896Q426.46875 239.22708 427.85938 239.22708Q429.23438 239.22708 429.89062 240.1177Q430.54688 240.9927 430.5625 242.83646L430.5625 244.2427ZM429.46875 242.75833Q429.46875 241.38333 429.07812 240.75833Q428.70312 240.1177 427.85938 240.1177Q427.03125 240.1177 426.64062 240.75833Q426.26562 241.38333 426.26562 242.6802L426.26562 244.41458Q426.26562 245.78958 426.65625 246.46146Q427.0625 247.1177 427.875 247.1177Q428.67188 247.1177 429.0625 246.4927Q429.45312 245.8677 429.46875 244.53958L429.46875 242.75833ZM437.5625 244.2427Q437.5625 246.14896 436.90625 247.08646Q436.26562 248.00833 434.875 248.00833Q433.51562 248.00833 432.85938 247.10208Q432.20312 246.19583 432.17188 244.38333L432.17188 242.94583Q432.17188 241.0552 432.8125 240.14896Q433.46875 239.22708 434.85938 239.22708Q436.23438 239.22708 436.89062 240.1177Q437.54688 240.9927 437.5625 242.83646L437.5625 244.2427ZM436.46875 242.75833Q436.46875 241.38333 436.07812 240.75833Q435.70312 240.1177 434.85938 240.1177Q434.03125 240.1177 433.64062 240.75833Q433.26562 241.38333 433.26562 242.6802L433.26562 244.41458Q433.26562 245.78958 433.65625 246.46146Q434.0625 247.1177 434.875 247.1177Q435.67188 247.1177 436.0625 246.4927Q436.45312 245.8677 436.46875 244.53958L436.46875 242.75833Z" fill-rule="nonzero"/><path stroke="#00edb9" stroke-width="3.0" stroke-linejoin="round" stroke-linecap="round" d="M196.26562 223.83533L195.1875 223.83533L195.1875 216.61658L193.0 217.41345L193.0 216.42908L196.10938 215.2572L196.26562 215.2572L196.26562 223.83533ZM200.20312 219.55408L200.64062 215.30408L205.01562 215.30408L205.01562 216.30408L201.5625 216.30408L201.29688 218.6322Q201.9375 218.2572 202.73438 218.2572Q203.89062 218.2572 204.57812 219.03845Q205.26562 219.80408 205.26562 221.11658Q205.26562 222.42908 204.54688 223.1947Q203.84375 223.96033 202.5625 223.96033Q201.4375 223.96033 200.71875 223.33533Q200.0 222.6947 199.90625 221.58533L200.92188 221.58533Q201.03125 222.3197 201.45312 222.6947Q201.875 223.0697 202.5625 223.0697Q203.3125 223.0697 203.75 222.55408Q204.1875 222.03845 204.1875 221.1322Q204.1875 220.27283 203.71875 219.7572Q203.25 219.24158 202.46875 219.24158Q201.76562 219.24158 201.35938 219.53845L201.07812 219.77283L200.20312 219.55408Z" fill-rule="nonzero"/><path fill="#000000" d="M196.26562 223.83533L195.1875 223.83533L195.1875 216.61658L193.0 217.41345L193.0 216.42908L196.10938 215.2572L196.26562 215.2572L196.26562 223.83533ZM200.20312 219.55408L200.64062 215.30408L205.01562 215.30408L205.01562 216.30408L201.5625 216.30408L201.29688 218.6322Q201.9375 218.2572 202.73438 218.2572Q203.89062 218.2572 204.57812 219.03845Q205.26562 219.80408 205.26562 221.11658Q205.26562 222.42908 204.54688 223.1947Q203.84375 223.96033 202.5625 223.96033Q201.4375 223.96033 200.71875 223.33533Q200.0 222.6947 199.90625 221.58533L200.92188 221.58533Q201.03125 222.3197 201.45312 222.6947Q201.875 223.0697 202.5625 223.0697Q203.3125 223.0697 203.75 222.55408Q204.1875 222.03845 204.1875 221.1322Q204.1875 220.27283 203.71875 219.7572Q203.25 219.24158 202.46875 219.24158Q201.76562 219.24158 201.35938 219.53845L201.07812 219.77283L200.20312 219.55408Z" fill-rule="nonzero"/><path stroke="#00edb9" stroke-width="3.0" stroke-linejoin="round" stroke-linecap="round" d="M429.35938 147.05066Q429.03125 147.45691 428.54688 147.70691Q428.07812 147.94128 427.51562 147.94128Q426.78125 147.94128 426.23438 147.58191Q425.6875 147.22253 425.39062 146.56628Q425.09375 145.89441 425.09375 145.09753Q425.09375 144.25378 425.40625 143.56628Q425.73438 142.87878 426.32812 142.51941Q426.9375 142.14441 427.73438 142.14441Q429.0 142.14441 429.71875 143.09753Q430.45312 144.05066 430.45312 145.67566L430.45312 145.98816Q430.45312 148.48816 429.46875 149.62878Q428.48438 150.76941 426.5 150.80066L426.28125 150.80066L426.28125 149.89441L426.51562 149.89441Q427.85938 149.86316 428.57812 149.19128Q429.29688 148.51941 429.35938 147.05066ZM427.6875 147.05066Q428.23438 147.05066 428.6875 146.72253Q429.15625 146.37878 429.375 145.89441L429.375 145.45691Q429.375 144.39441 428.90625 143.72253Q428.4375 143.05066 427.73438 143.05066Q427.01562 143.05066 426.57812 143.59753Q426.15625 144.14441 426.15625 145.05066Q426.15625 145.92566 426.5625 146.48816Q426.98438 147.05066 427.6875 147.05066Z" fill-rule="nonzero"/><path fill="#000000" d="M429.35938 147.05066Q429.03125 147.45691 428.54688 147.70691Q428.07812 147.94128 427.51562 147.94128Q426.78125 147.94128 426.23438 147.58191Q425.6875 147.22253 425.39062 146.56628Q425.09375 145.89441 425.09375 145.09753Q425.09375 144.25378 425.40625 143.56628Q425.73438 142.87878 426.32812 142.51941Q426.9375 142.14441 427.73438 142.14441Q429.0 142.14441 429.71875 143.09753Q430.45312 144.05066 430.45312 145.67566L430.45312 145.98816Q430.45312 148.48816 429.46875 149.62878Q428.48438 150.76941 426.5 150.80066L426.28125 150.80066L426.28125 149.89441L426.51562 149.89441Q427.85938 149.86316 428.57812 149.19128Q429.29688 148.51941 429.35938 147.05066ZM427.6875 147.05066Q428.23438 147.05066 428.6875 146.72253Q429.15625 146.37878 429.375 145.89441L429.375 145.45691Q429.375 144.39441 428.90625 143.72253Q428.4375 143.05066 427.73438 143.05066Q427.01562 143.05066 426.57812 143.59753Q426.15625 144.14441 426.15625 145.05066Q426.15625 145.92566 426.5625 146.48816Q426.98438 147.05066 427.6875 147.05066Z" fill-rule="nonzero"/><path fill="#000000" d="M33.05 332.21564Q33.05 330.6844 33.3625 329.7625Q33.675 328.825 34.284374 328.325Q34.909374 327.825 35.846874 327.825Q36.534374 327.825 37.05 328.10626Q37.58125 328.3875 37.925 328.91876Q38.26875 329.4344 38.45625 330.1844Q38.64375 330.9344 38.64375 332.21564Q38.64375 333.73126 38.33125 334.65314Q38.034374 335.575 37.409374 336.09064Q36.8 336.59064 35.846874 336.59064Q34.6125 336.59064 33.89375 335.7Q33.05 334.6375 33.05 332.21564ZM34.128124 332.21564Q34.128124 334.325 34.628124 335.02814Q35.128124 335.73126 35.846874 335.73126Q36.58125 335.73126 37.065624 335.02814Q37.565624 334.325 37.565624 332.21564Q37.565624 330.09064 37.065624 329.40314Q36.58125 328.7 35.83125 328.7Q35.1125 328.7 34.675 329.3094Q34.128124 330.09064 34.128124 332.21564Z" fill-rule="nonzero"/><path fill="#000000" d="M31.596874 290.90103L31.596874 291.91666L25.909374 291.91666Q25.909374 291.54166 26.034374 291.18228Q26.253124 290.60416 26.721874 290.04166Q27.20625 289.47916 28.1125 288.74478Q29.51875 287.58853 30.003124 286.91666Q30.503124 286.24478 30.503124 285.65103Q30.503124 285.02603 30.05 284.60416Q29.596874 284.16666 28.878124 284.16666Q28.1125 284.16666 27.659374 284.61978Q27.20625 285.0729 27.190624 285.8854L26.1125 285.77603Q26.221874 284.55728 26.940624 283.93228Q27.675 283.29166 28.909374 283.29166Q30.14375 283.29166 30.8625 283.97916Q31.58125 284.66666 31.58125 285.68228Q31.58125 286.1979 31.3625 286.6979Q31.159374 287.18228 30.659374 287.74478Q30.175 288.29166 29.05 289.24478Q28.096874 290.04166 27.815624 290.33853Q27.55 290.61978 27.378124 290.90103L31.596874 290.90103ZM33.05 289.66666L34.159374 289.5729Q34.284374 290.3854 34.721874 290.79166Q35.175 291.1979 35.815624 291.1979Q36.565624 291.1979 37.096874 290.61978Q37.628124 290.04166 37.628124 289.10416Q37.628124 288.1979 37.1125 287.68228Q36.6125 287.15103 35.784374 287.15103Q35.284374 287.15103 34.8625 287.3854Q34.45625 287.61978 34.221874 287.97916L33.2375 287.85416L34.065624 283.4479L38.346874 283.4479L38.346874 284.4479L34.909374 284.4479L34.45625 286.7604Q35.221874 286.21353 36.065624 286.21353Q37.190624 286.21353 37.95625 286.99478Q38.7375 287.77603 38.7375 289.0104Q38.7375 290.16666 38.065624 291.02603Q37.2375 292.05728 35.815624 292.05728Q34.64375 292.05728 33.89375 291.40103Q33.159374 290.74478 33.05 289.66666Z" fill-rule="nonzero"/><path fill="#000000" d="M26.05 245.13333L27.159374 245.03958Q27.284374 245.85208 27.721874 246.25833Q28.175 246.66458 28.815624 246.66458Q29.565624 246.66458 30.096874 246.08646Q30.628124 245.50833 30.628124 244.57083Q30.628124 243.66458 30.1125 243.14896Q29.6125 242.6177 28.784374 242.6177Q28.284374 242.6177 27.8625 242.85208Q27.45625 243.08646 27.221874 243.44583L26.2375 243.32083L27.065624 238.91458L31.346874 238.91458L31.346874 239.91458L27.909374 239.91458L27.45625 242.22708Q28.221874 241.6802 29.065624 241.6802Q30.190624 241.6802 30.95625 242.46146Q31.7375 243.2427 31.7375 244.47708Q31.7375 245.63333 31.065624 246.4927Q30.2375 247.52396 28.815624 247.52396Q27.64375 247.52396 26.89375 246.8677Q26.159374 246.21146 26.05 245.13333ZM33.05 243.14896Q33.05 241.6177 33.3625 240.69583Q33.675 239.75833 34.284374 239.25833Q34.909374 238.75833 35.846874 238.75833Q36.534374 238.75833 37.05 239.03958Q37.58125 239.32083 37.925 239.85208Q38.26875 240.3677 38.45625 241.1177Q38.64375 241.8677 38.64375 243.14896Q38.64375 244.66458 38.33125 245.58646Q38.034374 246.50833 37.409374 247.02396Q36.8 247.52396 35.846874 247.52396Q34.6125 247.52396 33.89375 246.63333Q33.05 245.57083 33.05 243.14896ZM34.128124 243.14896Q34.128124 245.25833 34.628124 245.96146Q35.128124 246.66458 35.846874 246.66458Q36.58125 246.66458 37.065624 245.96146Q37.565624 245.25833 37.565624 243.14896Q37.565624 241.02396 37.065624 240.33646Q36.58125 239.63333 35.83125 239.63333Q35.1125 239.63333 34.675 240.2427Q34.128124 241.02396 34.128124 243.14896Z" fill-rule="nonzero"/><path fill="#000000" d="M26.1125 195.38126L26.1125 194.36563L31.675 194.36563L31.675 195.19376Q30.8625 196.06876 30.05 197.52188Q29.253124 198.95938 28.815624 200.49063Q28.4875 201.56876 28.409374 202.85L27.315624 202.85Q27.33125 201.83438 27.70625 200.39688Q28.096874 198.95938 28.8 197.63126Q29.51875 196.30313 30.33125 195.38126L26.1125 195.38126ZM33.05 200.6L34.159374 200.50626Q34.284374 201.31876 34.721874 201.725Q35.175 202.13126 35.815624 202.13126Q36.565624 202.13126 37.096874 201.55313Q37.628124 200.975 37.628124 200.0375Q37.628124 199.13126 37.1125 198.61563Q36.6125 198.08438 35.784374 198.08438Q35.284374 198.08438 34.8625 198.31876Q34.45625 198.55313 34.221874 198.9125L33.2375 198.7875L34.065624 194.38126L38.346874 194.38126L38.346874 195.38126L34.909374 195.38126L34.45625 197.69376Q35.221874 197.14688 36.065624 197.14688Q37.190624 197.14688 37.95625 197.92813Q38.7375 198.70938 38.7375 199.94376Q38.7375 201.1 38.065624 201.95938Q37.2375 202.99063 35.815624 202.99063Q34.64375 202.99063 33.89375 202.33438Q33.159374 201.67813 33.05 200.6Z" fill-rule="nonzero"/><path fill="#000000" d="M23.01875 158.31667L21.971874 158.31667L21.971874 151.59792Q21.58125 151.95729 20.95625 152.33229Q20.346874 152.69167 19.8625 152.86354L19.8625 151.84792Q20.7375 151.42604 21.39375 150.84792Q22.065624 150.25417 22.346874 149.69167L23.01875 149.69167L23.01875 158.31667ZM26.05 154.08229Q26.05 152.55104 26.3625 151.62917Q26.675 150.69167 27.284374 150.19167Q27.909374 149.69167 28.846874 149.69167Q29.534374 149.69167 30.05 149.97292Q30.58125 150.25417 30.925 150.78542Q31.26875 151.30104 31.45625 152.05104Q31.64375 152.80104 31.64375 154.08229Q31.64375 155.59792 31.33125 156.51979Q31.034374 157.44167 30.409374 157.95729Q29.8 158.45729 28.846874 158.45729Q27.6125 158.45729 26.89375 157.56667Q26.05 156.50417 26.05 154.08229ZM27.128124 154.08229Q27.128124 156.19167 27.628124 156.89479Q28.128124 157.59792 28.846874 157.59792Q29.58125 157.59792 30.065624 156.89479Q30.565624 156.19167 30.565624 154.08229Q30.565624 151.95729 30.065624 151.26979Q29.58125 150.56667 28.83125 150.56667Q28.1125 150.56667 27.675 151.17604Q27.128124 151.95729 27.128124 154.08229ZM33.05 154.08229Q33.05 152.55104 33.3625 151.62917Q33.675 150.69167 34.284374 150.19167Q34.909374 149.69167 35.846874 149.69167Q36.534374 149.69167 37.05 149.97292Q37.58125 150.25417 37.925 150.78542Q38.26875 151.30104 38.45625 152.05104Q38.64375 152.80104 38.64375 154.08229Q38.64375 155.59792 38.33125 156.51979Q38.034374 157.44167 37.409374 157.95729Q36.8 158.45729 35.846874 158.45729Q34.6125 158.45729 33.89375 157.56667Q33.05 156.50417 33.05 154.08229ZM34.128124 154.08229Q34.128124 156.19167 34.628124 156.89479Q35.128124 157.59792 35.846874 157.59792Q36.58125 157.59792 37.065624 156.89479Q37.565624 156.19167 37.565624 154.08229Q37.565624 151.95729 37.065624 151.26979Q36.58125 150.56667 35.83125 150.56667Q35.1125 150.56667 34.675 151.17604Q34.128124 151.95729 34.128124 154.08229Z" fill-rule="nonzero"/><path fill="#000000" d="M23.01875 113.78333L21.971874 113.78333L21.971874 107.06458Q21.58125 107.42396 20.95625 107.79896Q20.346874 108.15833 19.8625 108.33021L19.8625 107.31458Q20.7375 106.89271 21.39375 106.31458Q22.065624 105.72083 22.346874 105.15833L23.01875 105.15833L23.01875 113.78333ZM31.596874 112.76771L31.596874 113.78333L25.909374 113.78333Q25.909374 113.40833 26.034374 113.04896Q26.253124 112.47083 26.721874 111.90833Q27.20625 111.34583 28.1125 110.61146Q29.51875 109.45521 30.003124 108.78333Q30.503124 108.11146 30.503124 107.51771Q30.503124 106.89271 30.05 106.47083Q29.596874 106.03333 28.878124 106.03333Q28.1125 106.03333 27.659374 106.48646Q27.20625 106.93958 27.190624 107.75208L26.1125 107.64271Q26.221874 106.42396 26.940624 105.79896Q27.675 105.15833 28.909374 105.15833Q30.14375 105.15833 30.8625 105.84583Q31.58125 106.53333 31.58125 107.54896Q31.58125 108.06458 31.3625 108.56458Q31.159374 109.04896 30.659374 109.61146Q30.175 110.15833 29.05 111.11146Q28.096874 111.90833 27.815624 112.20521Q27.55 112.48646 27.378124 112.76771L31.596874 112.76771ZM33.05 111.53333L34.159374 111.43958Q34.284374 112.25208 34.721874 112.65833Q35.175 113.06458 35.815624 113.06458Q36.565624 113.06458 37.096874 112.48646Q37.628124 111.90833 37.628124 110.97083Q37.628124 110.06458 37.1125 109.54896Q36.6125 109.01771 35.784374 109.01771Q35.284374 109.01771 34.8625 109.25208Q34.45625 109.48646 34.221874 109.84583L33.2375 109.72083L34.065624 105.31458L38.346874 105.31458L38.346874 106.31458L34.909374 106.31458L34.45625 108.62708Q35.221874 108.08021 36.065624 108.08021Q37.190624 108.08021 37.95625 108.86146Q38.7375 109.64271 38.7375 110.87708Q38.7375 112.03333 38.065624 112.89271Q37.2375 113.92396 35.815624 113.92396Q34.64375 113.92396 33.89375 113.26771Q33.159374 112.61146 33.05 111.53333Z" fill-rule="nonzero"/><path fill="#000000" d="M135.35373 349.45L135.35373 340.85626L138.5881 340.85626Q139.57248 340.85626 140.16623 341.1219Q140.75998 341.3875 141.0881 341.9344Q141.43185 342.46564 141.43185 343.0594Q141.43185 343.60626 141.13498 344.09064Q140.8381 344.575 140.22873 344.8719Q141.00998 345.10626 141.41623 345.66876Q141.8381 346.21564 141.8381 346.96564Q141.8381 347.5594 141.5881 348.09064Q141.3381 348.60626 140.9631 348.8875Q140.5881 349.16876 140.00998 349.3094Q139.44748 349.45 138.63498 349.45L135.35373 349.45ZM136.49435 344.46564L138.35373 344.46564Q139.10373 344.46564 139.43185 344.3719Q139.86935 344.2469 140.0881 343.95Q140.30685 343.6375 140.30685 343.1844Q140.30685 342.7625 140.10373 342.4344Q139.9006 342.10626 139.50998 341.9969Q139.13498 341.8719 138.2131 341.8719L136.49435 341.8719L136.49435 344.46564ZM136.49435 348.4344L138.63498 348.4344Q139.18185 348.4344 139.4006 348.3875Q139.80685 348.325 140.05685 348.16876Q140.32248 347.9969 140.49435 347.6844Q140.66623 347.3719 140.66623 346.96564Q140.66623 346.48126 140.41623 346.1219Q140.18185 345.7625 139.74435 345.6219Q139.30685 345.48126 138.47873 345.48126L136.49435 345.48126L136.49435 348.4344ZM147.5256 347.45L148.61935 347.575Q148.36935 348.52814 147.66623 349.0594Q146.9631 349.59064 145.88498 349.59064Q144.5256 349.59064 143.7131 348.7469Q142.91623 347.90314 142.91623 346.3875Q142.91623 344.825 143.72873 343.96564Q144.54123 343.09064 145.82248 343.09064Q147.07248 343.09064 147.85373 343.9344Q148.6506 344.77814 148.6506 346.325Q148.6506 346.41876 148.6506 346.60626L144.00998 346.60626Q144.07248 347.6375 144.5881 348.1844Q145.10373 348.71564 145.88498 348.71564Q146.4631 348.71564 146.86935 348.41876Q147.29123 348.10626 147.5256 347.45ZM144.07248 345.7469L147.54123 345.7469Q147.47873 344.95 147.1506 344.5594Q146.63498 343.95 145.8381 343.95Q145.10373 343.95 144.60373 344.4344Q144.11935 344.91876 144.07248 345.7469ZM150.5256 349.45L150.5256 344.04376L149.5881 344.04376L149.5881 343.23126L150.5256 343.23126L150.5256 342.5594Q150.5256 341.9344 150.63498 341.6375Q150.79123 341.21564 151.16623 340.96564Q151.55685 340.71564 152.24435 340.71564Q152.69748 340.71564 153.22873 340.825L153.07248 341.73126Q152.74435 341.6844 152.44748 341.6844Q151.9631 341.6844 151.75998 341.8875Q151.57248 342.09064 151.57248 342.65314L151.57248 343.23126L152.79123 343.23126L152.79123 344.04376L151.57248 344.04376L151.57248 349.45L150.5256 349.45ZM152.88498 346.34064Q152.88498 344.60626 153.8381 343.77814Q154.63498 343.09064 155.79123 343.09064Q157.07248 343.09064 157.88498 343.9344Q158.7131 344.7625 158.7131 346.2469Q158.7131 347.45 158.35373 348.1375Q157.99435 348.825 157.29123 349.21564Q156.60373 349.59064 155.79123 349.59064Q154.49435 349.59064 153.68185 348.7625Q152.88498 347.91876 152.88498 346.34064ZM153.9631 346.34064Q153.9631 347.52814 154.47873 348.1219Q155.00998 348.71564 155.79123 348.71564Q156.5881 348.71564 157.10373 348.1219Q157.61935 347.52814 157.61935 346.3094Q157.61935 345.15314 157.0881 344.5594Q156.57248 343.96564 155.79123 343.96564Q155.00998 343.96564 154.47873 344.5594Q153.9631 345.1375 153.9631 346.34064ZM160.25998 349.45L160.25998 343.23126L161.2131 343.23126L161.2131 344.16876Q161.57248 343.5125 161.86935 343.3094Q162.18185 343.09064 162.55685 343.09064Q163.0881 343.09064 163.63498 343.41876L163.2756 344.40314Q162.88498 344.16876 162.50998 344.16876Q162.1506 344.16876 161.86935 344.3875Q161.60373 344.59064 161.49435 344.96564Q161.30685 345.52814 161.30685 346.1844L161.30685 349.45L160.25998 349.45ZM168.5256 347.45L169.61935 347.575Q169.36935 348.52814 168.66623 349.0594Q167.9631 349.59064 166.88498 349.59064Q165.5256 349.59064 164.7131 348.7469Q163.91623 347.90314 163.91623 346.3875Q163.91623 344.825 164.72873 343.96564Q165.54123 343.09064 166.82248 343.09064Q168.07248 343.09064 168.85373 343.9344Q169.6506 344.77814 169.6506 346.325Q169.6506 346.41876 169.6506 346.60626L165.00998 346.60626Q165.07248 347.6375 165.5881 348.1844Q166.10373 348.71564 166.88498 348.71564Q167.4631 348.71564 167.86935 348.41876Q168.29123 348.10626 168.5256 347.45ZM165.07248 345.7469L168.54123 345.7469Q168.47873 344.95 168.1506 344.5594Q167.63498 343.95 166.8381 343.95Q166.10373 343.95 165.60373 344.4344Q165.11935 344.91876 165.07248 345.7469ZM174.35373 349.45L174.35373 340.85626L175.49435 340.85626L175.49435 348.4344L179.72873 348.4344L179.72873 349.45L174.35373 349.45ZM181.2756 342.075L181.2756 340.85626L182.3381 340.85626L182.3381 342.075L181.2756 342.075ZM181.2756 349.45L181.2756 343.23126L182.3381 343.23126L182.3381 349.45L181.2756 349.45ZM188.3381 347.16876L189.36935 347.3094Q189.19748 348.3719 188.49435 348.98126Q187.79123 349.59064 186.7756 349.59064Q185.49435 349.59064 184.7131 348.7625Q183.94748 347.91876 183.94748 346.35626Q183.94748 345.35626 184.2756 344.60626Q184.61935 343.84064 185.29123 343.46564Q185.97873 343.09064 186.79123 343.09064Q187.79123 343.09064 188.43185 343.60626Q189.0881 344.10626 189.2756 345.0594L188.24435 345.21564Q188.10373 344.59064 187.72873 344.27814Q187.35373 343.95 186.82248 343.95Q186.0256 343.95 185.5256 344.52814Q185.0256 345.09064 185.0256 346.325Q185.0256 347.59064 185.50998 348.15314Q185.99435 348.71564 186.75998 348.71564Q187.38498 348.71564 187.79123 348.34064Q188.2131 347.96564 188.3381 347.16876ZM194.5256 347.45L195.61935 347.575Q195.36935 348.52814 194.66623 349.0594Q193.9631 349.59064 192.88498 349.59064Q191.5256 349.59064 190.7131 348.7469Q189.91623 347.90314 189.91623 346.3875Q189.91623 344.825 190.72873 343.96564Q191.54123 343.09064 192.82248 343.09064Q194.07248 343.09064 194.85373 343.9344Q195.6506 344.77814 195.6506 346.325Q195.6506 346.41876 195.6506 346.60626L191.00998 346.60626Q191.07248 347.6375 191.5881 348.1844Q192.10373 348.71564 192.88498 348.71564Q193.4631 348.71564 193.86935 348.41876Q194.29123 348.10626 194.5256 347.45ZM191.07248 345.7469L194.54123 345.7469Q194.47873 344.95 194.1506 344.5594Q193.63498 343.95 192.8381 343.95Q192.10373 343.95 191.60373 344.4344Q191.11935 344.91876 191.07248 345.7469ZM197.2756 349.45L197.2756 343.23126L198.2131 343.23126L198.2131 344.10626Q198.9006 343.09064 200.19748 343.09064Q200.75998 343.09064 201.22873 343.29376Q201.7131 343.4969 201.94748 343.825Q202.18185 344.15314 202.2756 344.59064Q202.32248 344.8875 202.32248 345.6219L202.32248 349.45L201.2756 349.45L201.2756 345.66876Q201.2756 345.0125 201.1506 344.7Q201.0256 344.3875 200.7131 344.2Q200.4006 343.9969 199.97873 343.9969Q199.30685 343.9969 198.80685 344.4344Q198.32248 344.85626 198.32248 346.04376L198.32248 349.45L197.2756 349.45ZM203.85373 347.59064L204.88498 347.4344Q204.97873 348.0594 205.36935 348.3875Q205.7756 348.71564 206.50998 348.71564Q207.22873 348.71564 207.57248 348.4344Q207.93185 348.1375 207.93185 347.73126Q207.93185 347.3719 207.61935 347.16876Q207.4006 347.02814 206.54123 346.8094Q205.38498 346.5125 204.93185 346.3094Q204.49435 346.09064 204.25998 345.71564Q204.0256 345.34064 204.0256 344.8719Q204.0256 344.46564 204.2131 344.10626Q204.4006 343.7469 204.72873 343.5125Q204.97873 343.34064 205.4006 343.21564Q205.82248 343.09064 206.32248 343.09064Q207.04123 343.09064 207.5881 343.3094Q208.1506 343.5125 208.41623 343.8719Q208.68185 344.23126 208.7756 344.825L207.74435 344.96564Q207.68185 344.4969 207.3381 344.23126Q207.00998 343.95 206.38498 343.95Q205.66623 343.95 205.35373 344.2Q205.04123 344.4344 205.04123 344.7625Q205.04123 344.96564 205.16623 345.1219Q205.30685 345.29376 205.57248 345.40314Q205.72873 345.46564 206.50998 345.66876Q207.63498 345.98126 208.07248 346.16876Q208.50998 346.35626 208.75998 346.71564Q209.00998 347.075 209.00998 347.6219Q209.00998 348.15314 208.69748 348.6219Q208.4006 349.075 207.82248 349.34064Q207.24435 349.59064 206.50998 349.59064Q205.29123 349.59064 204.6506 349.09064Q204.0256 348.575 203.85373 347.59064ZM215.5256 347.45L216.61935 347.575Q216.36935 348.52814 215.66623 349.0594Q214.9631 349.59064 213.88498 349.59064Q212.5256 349.59064 211.7131 348.7469Q210.91623 347.90314 210.91623 346.3875Q210.91623 344.825 211.72873 343.96564Q212.54123 343.09064 213.82248 343.09064Q215.07248 343.09064 215.85373 343.9344Q216.6506 344.77814 216.6506 346.325Q216.6506 346.41876 216.6506 346.60626L212.00998 346.60626Q212.07248 347.6375 212.5881 348.1844Q213.10373 348.71564 213.88498 348.71564Q214.4631 348.71564 214.86935 348.41876Q215.29123 348.10626 215.5256 347.45ZM212.07248 345.7469L215.54123 345.7469Q215.47873 344.95 215.1506 344.5594Q214.63498 343.95 213.8381 343.95Q213.10373 343.95 212.60373 344.4344Q212.11935 344.91876 212.07248 345.7469ZM227.54123 346.4344L228.66623 346.73126Q228.30685 348.1219 227.38498 348.85626Q226.4631 349.59064 225.11935 349.59064Q223.72873 349.59064 222.85373 349.02814Q221.97873 348.46564 221.5256 347.40314Q221.07248 346.325 221.07248 345.09064Q221.07248 343.7469 221.5881 342.7469Q222.10373 341.7469 223.04123 341.23126Q223.99435 340.71564 225.13498 340.71564Q226.41623 340.71564 227.29123 341.3719Q228.18185 342.02814 228.5256 343.21564L227.4006 343.48126Q227.10373 342.54376 226.5256 342.1219Q225.9631 341.6844 225.10373 341.6844Q224.11935 341.6844 223.44748 342.16876Q222.79123 342.6375 222.50998 343.4344Q222.24435 344.23126 222.24435 345.09064Q222.24435 346.1844 222.55685 346.9969Q222.88498 347.8094 223.55685 348.21564Q224.22873 348.6219 225.0256 348.6219Q225.97873 348.6219 226.63498 348.075Q227.30685 347.52814 227.54123 346.4344ZM230.2756 349.45L230.2756 340.85626L231.32248 340.85626L231.32248 343.9344Q232.05685 343.09064 233.18185 343.09064Q233.88498 343.09064 234.38498 343.3719Q234.9006 343.6375 235.11935 344.1219Q235.3381 344.59064 235.3381 345.5125L235.3381 349.45L234.29123 349.45L234.29123 345.5125Q234.29123 344.71564 233.94748 344.35626Q233.60373 343.9969 232.97873 343.9969Q232.50998 343.9969 232.0881 344.2469Q231.68185 344.48126 231.49435 344.90314Q231.32248 345.3094 231.32248 346.04376L231.32248 349.45L230.2756 349.45ZM241.3381 348.6844Q240.74435 349.1844 240.19748 349.3875Q239.66623 349.59064 239.04123 349.59064Q238.00998 349.59064 237.4631 349.09064Q236.91623 348.59064 236.91623 347.8094Q236.91623 347.35626 237.11935 346.98126Q237.32248 346.59064 237.66623 346.3719Q238.00998 346.1375 238.43185 346.02814Q238.72873 345.9344 239.36935 345.85626Q240.63498 345.71564 241.24435 345.4969Q241.24435 345.27814 241.24435 345.23126Q241.24435 344.575 240.94748 344.3094Q240.54123 343.96564 239.74435 343.96564Q239.00998 343.96564 238.6506 344.23126Q238.29123 344.48126 238.11935 345.1375L237.0881 344.9969Q237.22873 344.34064 237.55685 343.9344Q237.88498 343.52814 238.49435 343.3094Q239.10373 343.09064 239.9006 343.09064Q240.69748 343.09064 241.19748 343.27814Q241.69748 343.46564 241.93185 343.7469Q242.16623 344.02814 242.25998 344.46564Q242.30685 344.73126 242.30685 345.4344L242.30685 346.84064Q242.30685 348.3094 242.36935 348.7Q242.44748 349.09064 242.6506 349.45L241.54123 349.45Q241.38498 349.1219 241.3381 348.6844ZM241.24435 346.325Q240.66623 346.5594 239.5256 346.73126Q238.86935 346.825 238.60373 346.95Q238.3381 347.0594 238.18185 347.27814Q238.04123 347.4969 238.04123 347.77814Q238.04123 348.2 238.35373 348.48126Q238.68185 348.7625 239.29123 348.7625Q239.9006 348.7625 240.36935 348.4969Q240.85373 348.23126 241.07248 347.7625Q241.24435 347.40314 241.24435 346.71564L241.24435 346.325ZM244.2756 349.45L244.2756 343.23126L245.2131 343.23126L245.2131 344.10626Q245.9006 343.09064 247.19748 343.09064Q247.75998 343.09064 248.22873 343.29376Q248.7131 343.4969 248.94748 343.825Q249.18185 344.15314 249.2756 344.59064Q249.32248 344.8875 249.32248 345.6219L249.32248 349.45L248.2756 349.45L248.2756 345.66876Q248.2756 345.0125 248.1506 344.7Q248.0256 344.3875 247.7131 344.2Q247.4006 343.9969 246.97873 343.9969Q246.30685 343.9969 245.80685 344.4344Q245.32248 344.85626 245.32248 346.04376L245.32248 349.45L244.2756 349.45ZM251.07248 349.96564L252.10373 350.1219Q252.16623 350.59064 252.4631 350.8094Q252.85373 351.10626 253.5256 351.10626Q254.25998 351.10626 254.6506 350.8094Q255.05685 350.5125 255.19748 349.9969Q255.29123 349.66876 255.2756 348.6375Q254.5881 349.45 253.55685 349.45Q252.2756 349.45 251.57248 348.52814Q250.86935 347.59064 250.86935 346.3094Q250.86935 345.41876 251.18185 344.66876Q251.50998 343.90314 252.11935 343.4969Q252.72873 343.09064 253.55685 343.09064Q254.66623 343.09064 255.38498 343.98126L255.38498 343.23126L256.35373 343.23126L256.35373 348.60626Q256.35373 350.0594 256.05685 350.66876Q255.75998 351.27814 255.11935 351.6219Q254.47873 351.98126 253.54123 351.98126Q252.43185 351.98126 251.74435 351.48126Q251.05685 350.98126 251.07248 349.96564ZM251.94748 346.23126Q251.94748 347.45 252.43185 348.0125Q252.91623 348.575 253.6506 348.575Q254.38498 348.575 254.86935 348.0125Q255.36935 347.45 255.36935 346.2625Q255.36935 345.1219 254.85373 344.54376Q254.35373 343.96564 253.63498 343.96564Q252.93185 343.96564 252.43185 344.54376Q251.94748 345.10626 251.94748 346.23126ZM262.5256 347.45L263.61935 347.575Q263.36935 348.52814 262.66623 349.0594Q261.9631 349.59064 260.88498 349.59064Q259.5256 349.59064 258.7131 348.7469Q257.91623 347.90314 257.91623 346.3875Q257.91623 344.825 258.72873 343.96564Q259.54123 343.09064 260.82248 343.09064Q262.07248 343.09064 262.85373 343.9344Q263.6506 344.77814 263.6506 346.325Q263.6506 346.41876 263.6506 346.60626L259.00998 346.60626Q259.07248 347.6375 259.5881 348.1844Q260.10373 348.71564 260.88498 348.71564Q261.4631 348.71564 261.86935 348.41876Q262.29123 348.10626 262.5256 347.45ZM259.07248 345.7469L262.54123 345.7469Q262.47873 344.95 262.1506 344.5594Q261.63498 343.95 260.8381 343.95Q260.10373 343.95 259.60373 344.4344Q259.11935 344.91876 259.07248 345.7469Z" fill-rule="nonzero"/><path fill="#000000" d="M368.50565 349.45L371.80252 340.85626L373.02127 340.85626L376.5369 349.45L375.25565 349.45L374.24002 346.84064L370.6619 346.84064L369.70877 349.45L368.50565 349.45ZM370.99002 345.91876L373.89627 345.91876L373.00565 343.54376Q372.58377 342.46564 372.39627 341.7625Q372.2244 342.59064 371.92752 343.40314L370.99002 345.91876ZM376.56815 349.45L376.56815 344.04376L375.63065 344.04376L375.63065 343.23126L376.56815 343.23126L376.56815 342.5594Q376.56815 341.9344 376.67752 341.6375Q376.83377 341.21564 377.20877 340.96564Q377.5994 340.71564 378.2869 340.71564Q378.74002 340.71564 379.27127 340.825L379.11502 341.73126Q378.7869 341.6844 378.49002 341.6844Q378.00565 341.6844 377.80252 341.8875Q377.61502 342.09064 377.61502 342.65314L377.61502 343.23126L378.83377 343.23126L378.83377 344.04376L377.61502 344.04376L377.61502 349.45L376.56815 349.45ZM381.61502 348.5125L381.77127 349.4344Q381.31815 349.52814 380.9744 349.52814Q380.39627 349.52814 380.08377 349.35626Q379.77127 349.16876 379.63065 348.8719Q379.50565 348.575 379.50565 347.6219L379.50565 344.04376L378.74002 344.04376L378.74002 343.23126L379.50565 343.23126L379.50565 341.6844L380.55252 341.0594L380.55252 343.23126L381.61502 343.23126L381.61502 344.04376L380.55252 344.04376L380.55252 347.6844Q380.55252 348.1375 380.5994 348.2625Q380.6619 348.3875 380.7869 348.46564Q380.9119 348.54376 381.14627 348.54376Q381.33377 348.54376 381.61502 348.5125ZM386.56815 347.45L387.6619 347.575Q387.4119 348.52814 386.70877 349.0594Q386.00565 349.59064 384.92752 349.59064Q383.56815 349.59064 382.75565 348.7469Q381.95877 347.90314 381.95877 346.3875Q381.95877 344.825 382.77127 343.96564Q383.58377 343.09064 384.86502 343.09064Q386.11502 343.09064 386.89627 343.9344Q387.69315 344.77814 387.69315 346.325Q387.69315 346.41876 387.69315 346.60626L383.05252 346.60626Q383.11502 347.6375 383.63065 348.1844Q384.14627 348.71564 384.92752 348.71564Q385.50565 348.71564 385.9119 348.41876Q386.33377 348.10626 386.56815 347.45ZM383.11502 345.7469L386.58377 345.7469Q386.52127 344.95 386.19315 344.5594Q385.67752 343.95 384.88065 343.95Q384.14627 343.95 383.64627 344.4344Q383.1619 344.91876 383.11502 345.7469ZM389.30252 349.45L389.30252 343.23126L390.25565 343.23126L390.25565 344.16876Q390.61502 343.5125 390.9119 343.3094Q391.2244 343.09064 391.5994 343.09064Q392.13065 343.09064 392.67752 343.41876L392.31815 344.40314Q391.92752 344.16876 391.55252 344.16876Q391.19315 344.16876 390.9119 344.3875Q390.64627 344.59064 390.5369 344.96564Q390.3494 345.52814 390.3494 346.1844L390.3494 349.45L389.30252 349.45ZM396.39627 349.45L396.39627 340.85626L397.5369 340.85626L397.5369 348.4344L401.77127 348.4344L401.77127 349.45L396.39627 349.45ZM403.31815 342.075L403.31815 340.85626L404.38065 340.85626L404.38065 342.075L403.31815 342.075ZM403.31815 349.45L403.31815 343.23126L404.38065 343.23126L404.38065 349.45L403.31815 349.45ZM410.38065 347.16876L411.4119 347.3094Q411.24002 348.3719 410.5369 348.98126Q409.83377 349.59064 408.81815 349.59064Q407.5369 349.59064 406.75565 348.7625Q405.99002 347.91876 405.99002 346.35626Q405.99002 345.35626 406.31815 344.60626Q406.6619 343.84064 407.33377 343.46564Q408.02127 343.09064 408.83377 343.09064Q409.83377 343.09064 410.4744 343.60626Q411.13065 344.10626 411.31815 345.0594L410.2869 345.21564Q410.14627 344.59064 409.77127 344.27814Q409.39627 343.95 408.86502 343.95Q408.06815 343.95 407.56815 344.52814Q407.06815 345.09064 407.06815 346.325Q407.06815 347.59064 407.55252 348.15314Q408.0369 348.71564 408.80252 348.71564Q409.42752 348.71564 409.83377 348.34064Q410.25565 347.96564 410.38065 347.16876ZM416.56815 347.45L417.6619 347.575Q417.4119 348.52814 416.70877 349.0594Q416.00565 349.59064 414.92752 349.59064Q413.56815 349.59064 412.75565 348.7469Q411.95877 347.90314 411.95877 346.3875Q411.95877 344.825 412.77127 343.96564Q413.58377 343.09064 414.86502 343.09064Q416.11502 343.09064 416.89627 343.9344Q417.69315 344.77814 417.69315 346.325Q417.69315 346.41876 417.69315 346.60626L413.05252 346.60626Q413.11502 347.6375 413.63065 348.1844Q414.14627 348.71564 414.92752 348.71564Q415.50565 348.71564 415.9119 348.41876Q416.33377 348.10626 416.56815 347.45ZM413.11502 345.7469L416.58377 345.7469Q416.52127 344.95 416.19315 344.5594Q415.67752 343.95 414.88065 343.95Q414.14627 343.95 413.64627 344.4344Q413.1619 344.91876 413.11502 345.7469ZM419.31815 349.45L419.31815 343.23126L420.25565 343.23126L420.25565 344.10626Q420.94315 343.09064 422.24002 343.09064Q422.80252 343.09064 423.27127 343.29376Q423.75565 343.4969 423.99002 343.825Q424.2244 344.15314 424.31815 344.59064Q424.36502 344.8875 424.36502 345.6219L424.36502 349.45L423.31815 349.45L423.31815 345.66876Q423.31815 345.0125 423.19315 344.7Q423.06815 344.3875 422.75565 344.2Q422.44315 343.9969 422.02127 343.9969Q421.3494 343.9969 420.8494 344.4344Q420.36502 344.85626 420.36502 346.04376L420.36502 349.45L419.31815 349.45ZM425.89627 347.59064L426.92752 347.4344Q427.02127 348.0594 427.4119 348.3875Q427.81815 348.71564 428.55252 348.71564Q429.27127 348.71564 429.61502 348.4344Q429.9744 348.1375 429.9744 347.73126Q429.9744 347.3719 429.6619 347.16876Q429.44315 347.02814 428.58377 346.8094Q427.42752 346.5125 426.9744 346.3094Q426.5369 346.09064 426.30252 345.71564Q426.06815 345.34064 426.06815 344.8719Q426.06815 344.46564 426.25565 344.10626Q426.44315 343.7469 426.77127 343.5125Q427.02127 343.34064 427.44315 343.21564Q427.86502 343.09064 428.36502 343.09064Q429.08377 343.09064 429.63065 343.3094Q430.19315 343.5125 430.45877 343.8719Q430.7244 344.23126 430.81815 344.825L429.7869 344.96564Q429.7244 344.4969 429.38065 344.23126Q429.05252 343.95 428.42752 343.95Q427.70877 343.95 427.39627 344.2Q427.08377 344.4344 427.08377 344.7625Q427.08377 344.96564 427.20877 345.1219Q427.3494 345.29376 427.61502 345.40314Q427.77127 345.46564 428.55252 345.66876Q429.67752 345.98126 430.11502 346.16876Q430.55252 346.35626 430.80252 346.71564Q431.05252 347.075 431.05252 347.6219Q431.05252 348.15314 430.74002 348.6219Q430.44315 349.075 429.86502 349.34064Q429.2869 349.59064 428.55252 349.59064Q427.33377 349.59064 426.69315 349.09064Q426.06815 348.575 425.89627 347.59064ZM437.56815 347.45L438.6619 347.575Q438.4119 348.52814 437.70877 349.0594Q437.00565 349.59064 435.92752 349.59064Q434.56815 349.59064 433.75565 348.7469Q432.95877 347.90314 432.95877 346.3875Q432.95877 344.825 433.77127 343.96564Q434.58377 343.09064 435.86502 343.09064Q437.11502 343.09064 437.89627 343.9344Q438.69315 344.77814 438.69315 346.325Q438.69315 346.41876 438.69315 346.60626L434.05252 346.60626Q434.11502 347.6375 434.63065 348.1844Q435.14627 348.71564 435.92752 348.71564Q436.50565 348.71564 436.9119 348.41876Q437.33377 348.10626 437.56815 347.45ZM434.11502 345.7469L437.58377 345.7469Q437.52127 344.95 437.19315 344.5594Q436.67752 343.95 435.88065 343.95Q435.14627 343.95 434.64627 344.4344Q434.1619 344.91876 434.11502 345.7469ZM449.58377 346.4344L450.70877 346.73126Q450.3494 348.1219 449.42752 348.85626Q448.50565 349.59064 447.1619 349.59064Q445.77127 349.59064 444.89627 349.02814Q444.02127 348.46564 443.56815 347.40314Q443.11502 346.325 443.11502 345.09064Q443.11502 343.7469 443.63065 342.7469Q444.14627 341.7469 445.08377 341.23126Q446.0369 340.71564 447.17752 340.71564Q448.45877 340.71564 449.33377 341.3719Q450.2244 342.02814 450.56815 343.21564L449.44315 343.48126Q449.14627 342.54376 448.56815 342.1219Q448.00565 341.6844 447.14627 341.6844Q446.1619 341.6844 445.49002 342.16876Q444.83377 342.6375 444.55252 343.4344Q444.2869 344.23126 444.2869 345.09064Q444.2869 346.1844 444.5994 346.9969Q444.92752 347.8094 445.5994 348.21564Q446.27127 348.6219 447.06815 348.6219Q448.02127 348.6219 448.67752 348.075Q449.3494 347.52814 449.58377 346.4344ZM452.31815 349.45L452.31815 340.85626L453.36502 340.85626L453.36502 343.9344Q454.0994 343.09064 455.2244 343.09064Q455.92752 343.09064 456.42752 343.3719Q456.94315 343.6375 457.1619 344.1219Q457.38065 344.59064 457.38065 345.5125L457.38065 349.45L456.33377 349.45L456.33377 345.5125Q456.33377 344.71564 455.99002 344.35626Q455.64627 343.9969 455.02127 343.9969Q454.55252 343.9969 454.13065 344.2469Q453.7244 344.48126 453.5369 344.90314Q453.36502 345.3094 453.36502 346.04376L453.36502 349.45L452.31815 349.45ZM463.38065 348.6844Q462.7869 349.1844 462.24002 349.3875Q461.70877 349.59064 461.08377 349.59064Q460.05252 349.59064 459.50565 349.09064Q458.95877 348.59064 458.95877 347.8094Q458.95877 347.35626 459.1619 346.98126Q459.36502 346.59064 459.70877 346.3719Q460.05252 346.1375 460.4744 346.02814Q460.77127 345.9344 461.4119 345.85626Q462.67752 345.71564 463.2869 345.4969Q463.2869 345.27814 463.2869 345.23126Q463.2869 344.575 462.99002 344.3094Q462.58377 343.96564 461.7869 343.96564Q461.05252 343.96564 460.69315 344.23126Q460.33377 344.48126 460.1619 345.1375L459.13065 344.9969Q459.27127 344.34064 459.5994 343.9344Q459.92752 343.52814 460.5369 343.3094Q461.14627 343.09064 461.94315 343.09064Q462.74002 343.09064 463.24002 343.27814Q463.74002 343.46564 463.9744 343.7469Q464.20877 344.02814 464.30252 344.46564Q464.3494 344.73126 464.3494 345.4344L464.3494 346.84064Q464.3494 348.3094 464.4119 348.7Q464.49002 349.09064 464.69315 349.45L463.58377 349.45Q463.42752 349.1219 463.38065 348.6844ZM463.2869 346.325Q462.70877 346.5594 461.56815 346.73126Q460.9119 346.825 460.64627 346.95Q460.38065 347.0594 460.2244 347.27814Q460.08377 347.4969 460.08377 347.77814Q460.08377 348.2 460.39627 348.48126Q460.7244 348.7625 461.33377 348.7625Q461.94315 348.7625 462.4119 348.4969Q462.89627 348.23126 463.11502 347.7625Q463.2869 347.40314 463.2869 346.71564L463.2869 346.325ZM466.31815 349.45L466.31815 343.23126L467.25565 343.23126L467.25565 344.10626Q467.94315 343.09064 469.24002 343.09064Q469.80252 343.09064 470.27127 343.29376Q470.75565 343.4969 470.99002 343.825Q471.2244 344.15314 471.31815 344.59064Q471.36502 344.8875 471.36502 345.6219L471.36502 349.45L470.31815 349.45L470.31815 345.66876Q470.31815 345.0125 470.19315 344.7Q470.06815 344.3875 469.75565 344.2Q469.44315 343.9969 469.02127 343.9969Q468.3494 343.9969 467.8494 344.4344Q467.36502 344.85626 467.36502 346.04376L467.36502 349.45L466.31815 349.45ZM473.11502 349.96564L474.14627 350.1219Q474.20877 350.59064 474.50565 350.8094Q474.89627 351.10626 475.56815 351.10626Q476.30252 351.10626 476.69315 350.8094Q477.0994 350.5125 477.24002 349.9969Q477.33377 349.66876 477.31815 348.6375Q476.63065 349.45 475.5994 349.45Q474.31815 349.45 473.61502 348.52814Q472.9119 347.59064 472.9119 346.3094Q472.9119 345.41876 473.2244 344.66876Q473.55252 343.90314 474.1619 343.4969Q474.77127 343.09064 475.5994 343.09064Q476.70877 343.09064 477.42752 343.98126L477.42752 343.23126L478.39627 343.23126L478.39627 348.60626Q478.39627 350.0594 478.0994 350.66876Q477.80252 351.27814 477.1619 351.6219Q476.52127 351.98126 475.58377 351.98126Q474.4744 351.98126 473.7869 351.48126Q473.0994 350.98126 473.11502 349.96564ZM473.99002 346.23126Q473.99002 347.45 474.4744 348.0125Q474.95877 348.575 475.69315 348.575Q476.42752 348.575 476.9119 348.0125Q477.4119 347.45 477.4119 346.2625Q477.4119 345.1219 476.89627 344.54376Q476.39627 343.96564 475.67752 343.96564Q474.9744 343.96564 474.4744 344.54376Q473.99002 345.10626 473.99002 346.23126ZM484.56815 347.45L485.6619 347.575Q485.4119 348.52814 484.70877 349.0594Q484.00565 349.59064 482.92752 349.59064Q481.56815 349.59064 480.75565 348.7469Q479.95877 347.90314 479.95877 346.3875Q479.95877 344.825 480.77127 343.96564Q481.58377 343.09064 482.86502 343.09064Q484.11502 343.09064 484.89627 343.9344Q485.69315 344.77814 485.69315 346.325Q485.69315 346.41876 485.69315 346.60626L481.05252 346.60626Q481.11502 347.6375 481.63065 348.1844Q482.14627 348.71564 482.92752 348.71564Q483.50565 348.71564 483.9119 348.41876Q484.33377 348.10626 484.56815 347.45ZM481.11502 345.7469L484.58377 345.7469Q484.52127 344.95 484.19315 344.5594Q483.67752 343.95 482.88065 343.95Q482.14627 343.95 481.64627 344.4344Q481.1619 344.91876 481.11502 345.7469Z" fill-rule="nonzero"/><path fill="#00edb9" d="M210.5 78.416664C210.5 77.86438 210.94771 77.416664 211.5 77.416664L221.5 77.416664C222.05229 77.416664 222.5 77.86438 222.5 78.416664L222.5 88.416664C222.5 88.96895 222.05229 89.416664 221.5 89.416664L211.5 89.416664C210.94771 89.416664 210.5 88.96895 210.5 88.416664Z" fill-rule="nonzero"/><path fill="#000000" d="M237.5625 84.40104L238.6875 84.697914Q238.32812 86.08854 237.40625 86.822914Q236.48438 87.55729 235.14062 87.55729Q233.75 87.55729 232.875 86.99479Q232.0 86.43229 231.54688 85.36979Q231.09375 84.291664 231.09375 83.05729Q231.09375 81.71354 231.60938 80.71354Q232.125 79.71354 233.0625 79.197914Q234.01562 78.68229 235.15625 78.68229Q236.4375 78.68229 237.3125 79.33854Q238.20312 79.99479 238.54688 81.18229L237.42188 81.447914Q237.125 80.510414 236.54688 80.08854Q235.98438 79.65104 235.125 79.65104Q234.14062 79.65104 233.46875 80.135414Q232.8125 80.604164 232.53125 81.40104Q232.26562 82.197914 232.26562 83.05729Q232.26562 84.15104 232.57812 84.96354Q232.90625 85.77604 233.57812 86.18229Q234.25 86.58854 235.04688 86.58854Q236.0 86.58854 236.65625 86.041664Q237.32812 85.49479 237.5625 84.40104ZM239.90625 84.30729Q239.90625 82.572914 240.85938 81.74479Q241.65625 81.05729 242.8125 81.05729Q244.09375 81.05729 244.90625 81.90104Q245.73438 82.729164 245.73438 84.21354Q245.73438 85.416664 245.375 86.104164Q245.01562 86.791664 244.3125 87.18229Q243.625 87.55729 242.8125 87.55729Q241.51562 87.55729 240.70312 86.729164Q239.90625 85.885414 239.90625 84.30729ZM240.98438 84.30729Q240.98438 85.49479 241.5 86.08854Q242.03125 86.68229 242.8125 86.68229Q243.60938 86.68229 244.125 86.08854Q244.64062 85.49479 244.64062 84.27604Q244.64062 83.11979 244.10938 82.52604Q243.59375 81.93229 242.8125 81.93229Q242.03125 81.93229 241.5 82.52604Q240.98438 83.104164 240.98438 84.30729ZM247.29688 87.416664L247.29688 81.197914L248.23438 81.197914L248.23438 82.072914Q248.53125 81.604164 249.01562 81.33854Q249.5 81.05729 250.125 81.05729Q250.8125 81.05729 251.25 81.33854Q251.70312 81.61979 251.875 82.135414Q252.625 81.05729 253.79688 81.05729Q254.73438 81.05729 255.21875 81.572914Q255.71875 82.072914 255.71875 83.15104L255.71875 87.416664L254.67188 87.416664L254.67188 83.49479Q254.67188 82.86979 254.5625 82.58854Q254.46875 82.30729 254.20312 82.135414Q253.9375 81.96354 253.5625 81.96354Q252.90625 81.96354 252.46875 82.40104Q252.04688 82.83854 252.04688 83.80729L252.04688 87.416664L250.98438 87.416664L250.98438 83.36979Q250.98438 82.666664 250.71875 82.322914Q250.46875 81.96354 249.89062 81.96354Q249.4375 81.96354 249.0625 82.197914Q248.6875 82.43229 248.51562 82.885414Q248.34375 83.33854 248.34375 84.18229L248.34375 87.416664L247.29688 87.416664ZM258.29688 87.416664L258.29688 81.197914L259.23438 81.197914L259.23438 82.072914Q259.53125 81.604164 260.01562 81.33854Q260.5 81.05729 261.125 81.05729Q261.8125 81.05729 262.25 81.33854Q262.70312 81.61979 262.875 82.135414Q263.625 81.05729 264.79688 81.05729Q265.73438 81.05729 266.21875 81.572914Q266.71875 82.072914 266.71875 83.15104L266.71875 87.416664L265.67188 87.416664L265.67188 83.49479Q265.67188 82.86979 265.5625 82.58854Q265.46875 82.30729 265.20312 82.135414Q264.9375 81.96354 264.5625 81.96354Q263.90625 81.96354 263.46875 82.40104Q263.04688 82.83854 263.04688 83.80729L263.04688 87.416664L261.98438 87.416664L261.98438 83.36979Q261.98438 82.666664 261.71875 82.322914Q261.46875 81.96354 260.89062 81.96354Q260.4375 81.96354 260.0625 82.197914Q259.6875 82.43229 259.51562 82.885414Q259.34375 83.33854 259.34375 84.18229L259.34375 87.416664L258.29688 87.416664ZM273.375 87.416664L273.375 86.49479Q272.64062 87.55729 271.39062 87.55729Q270.84375 87.55729 270.35938 87.354164Q269.89062 87.135414 269.65625 86.822914Q269.42188 86.49479 269.32812 86.02604Q269.26562 85.729164 269.26562 85.041664L269.26562 81.197914L270.32812 81.197914L270.32812 84.65104Q270.32812 85.46354 270.39062 85.760414Q270.48438 86.166664 270.79688 86.416664Q271.125 86.65104 271.60938 86.65104Q272.07812 86.65104 272.48438 86.416664Q272.90625 86.166664 273.07812 85.74479Q273.26562 85.322914 273.26562 84.52604L273.26562 81.197914L274.3125 81.197914L274.3125 87.416664L273.375 87.416664ZM276.29688 87.416664L276.29688 81.197914L277.23438 81.197914L277.23438 82.072914Q277.92188 81.05729 279.21875 81.05729Q279.78125 81.05729 280.25 81.260414Q280.73438 81.46354 280.96875 81.791664Q281.20312 82.11979 281.29688 82.55729Q281.34375 82.854164 281.34375 83.58854L281.34375 87.416664L280.29688 87.416664L280.29688 83.635414Q280.29688 82.979164 280.17188 82.666664Q280.04688 82.354164 279.73438 82.166664Q279.42188 81.96354 279.0 81.96354Q278.32812 81.96354 277.82812 82.40104Q277.34375 82.822914 277.34375 84.010414L277.34375 87.416664L276.29688 87.416664ZM283.29688 80.041664L283.29688 78.822914L284.35938 78.822914L284.35938 80.041664L283.29688 80.041664ZM283.29688 87.416664L283.29688 81.197914L284.35938 81.197914L284.35938 87.416664L283.29688 87.416664ZM288.59375 86.479164L288.75 87.40104Q288.29688 87.49479 287.95312 87.49479Q287.375 87.49479 287.0625 87.322914Q286.75 87.135414 286.60938 86.83854Q286.48438 86.541664 286.48438 85.58854L286.48438 82.010414L285.71875 82.010414L285.71875 81.197914L286.48438 81.197914L286.48438 79.65104L287.53125 79.02604L287.53125 81.197914L288.59375 81.197914L288.59375 82.010414L287.53125 82.010414L287.53125 85.65104Q287.53125 86.104164 287.57812 86.229164Q287.64062 86.354164 287.76562 86.43229Q287.89062 86.510414 288.125 86.510414Q288.3125 86.510414 288.59375 86.479164ZM289.25 89.80729L289.125 88.822914Q289.46875 88.916664 289.73438 88.916664Q290.07812 88.916664 290.28125 88.791664Q290.5 88.68229 290.64062 88.479164Q290.73438 88.30729 290.96875 87.68229Q290.98438 87.604164 291.0625 87.43229L288.6875 81.197914L289.82812 81.197914L291.125 84.791664Q291.375 85.479164 291.57812 86.24479Q291.76562 85.510414 292.01562 84.822914L293.34375 81.197914L294.39062 81.197914L292.03125 87.52604Q291.64062 88.541664 291.4375 88.93229Q291.15625 89.46354 290.78125 89.697914Q290.42188 89.947914 289.92188 89.947914Q289.625 89.947914 289.25 89.80729Z" fill-rule="nonzero"/><path fill="#1d136d" d="M309.5 78.416664C309.5 77.86438 309.94772 77.416664 310.5 77.416664L320.5 77.416664C321.05228 77.416664 321.5 77.86438 321.5 78.416664L321.5 88.416664C321.5 88.96895 321.05228 89.416664 320.5 89.416664L310.5 89.416664C309.94772 89.416664 309.5 88.96895 309.5 88.416664Z" fill-rule="nonzero"/><path fill="#000000" d="M330.46875 87.416664L330.46875 78.822914L331.59375 78.822914L331.59375 82.354164L336.0625 82.354164L336.0625 78.822914L337.20312 78.822914L337.20312 87.416664L336.0625 87.416664L336.0625 83.36979L331.59375 83.36979L331.59375 87.416664L330.46875 87.416664ZM343.35938 86.65104Q342.76562 87.15104 342.21875 87.354164Q341.6875 87.55729 341.0625 87.55729Q340.03125 87.55729 339.48438 87.05729Q338.9375 86.55729 338.9375 85.77604Q338.9375 85.322914 339.14062 84.947914Q339.34375 84.55729 339.6875 84.33854Q340.03125 84.104164 340.45312 83.99479Q340.75 83.90104 341.39062 83.822914Q342.65625 83.68229 343.26562 83.46354Q343.26562 83.24479 343.26562 83.197914Q343.26562 82.541664 342.96875 82.27604Q342.5625 81.93229 341.76562 81.93229Q341.03125 81.93229 340.67188 82.197914Q340.3125 82.447914 340.14062 83.104164L339.10938 82.96354Q339.25 82.30729 339.57812 81.90104Q339.90625 81.49479 340.51562 81.27604Q341.125 81.05729 341.92188 81.05729Q342.71875 81.05729 343.21875 81.24479Q343.71875 81.43229 343.95312 81.71354Q344.1875 81.99479 344.28125 82.43229Q344.32812 82.697914 344.32812 83.40104L344.32812 84.80729Q344.32812 86.27604 344.39062 86.666664Q344.46875 87.05729 344.67188 87.416664L343.5625 87.416664Q343.40625 87.08854 343.35938 86.65104ZM343.26562 84.291664Q342.6875 84.52604 341.54688 84.697914Q340.89062 84.791664 340.625 84.916664Q340.35938 85.02604 340.20312 85.24479Q340.0625 85.46354 340.0625 85.74479Q340.0625 86.166664 340.375 86.447914Q340.70312 86.729164 341.3125 86.729164Q341.92188 86.729164 342.39062 86.46354Q342.875 86.197914 343.09375 85.729164Q343.26562 85.36979 343.26562 84.68229L343.26562 84.291664ZM345.875 85.55729L346.90625 85.40104Q347.0 86.02604 347.39062 86.354164Q347.79688 86.68229 348.53125 86.68229Q349.25 86.68229 349.59375 86.40104Q349.95312 86.104164 349.95312 85.697914Q349.95312 85.33854 349.64062 85.135414Q349.42188 84.99479 348.5625 84.77604Q347.40625 84.479164 346.95312 84.27604Q346.51562 84.05729 346.28125 83.68229Q346.04688 83.30729 346.04688 82.83854Q346.04688 82.43229 346.23438 82.072914Q346.42188 81.71354 346.75 81.479164Q347.0 81.30729 347.42188 81.18229Q347.84375 81.05729 348.34375 81.05729Q349.0625 81.05729 349.60938 81.27604Q350.17188 81.479164 350.4375 81.83854Q350.70312 82.197914 350.79688 82.791664L349.76562 82.93229Q349.70312 82.46354 349.35938 82.197914Q349.03125 81.916664 348.40625 81.916664Q347.6875 81.916664 347.375 82.166664Q347.0625 82.40104 347.0625 82.729164Q347.0625 82.93229 347.1875 83.08854Q347.32812 83.260414 347.59375 83.36979Q347.75 83.43229 348.53125 83.635414Q349.65625 83.947914 350.09375 84.135414Q350.53125 84.322914 350.78125 84.68229Q351.03125 85.041664 351.03125 85.58854Q351.03125 86.11979 350.71875 86.58854Q350.42188 87.041664 349.84375 87.30729Q349.26562 87.55729 348.53125 87.55729Q347.3125 87.55729 346.67188 87.05729Q346.04688 86.541664 345.875 85.55729ZM353.29688 87.416664L353.29688 78.822914L354.34375 78.822914L354.34375 81.90104Q355.07812 81.05729 356.20312 81.05729Q356.90625 81.05729 357.40625 81.33854Q357.92188 81.604164 358.14062 82.08854Q358.35938 82.55729 358.35938 83.479164L358.35938 87.416664L357.3125 87.416664L357.3125 83.479164Q357.3125 82.68229 356.96875 82.322914Q356.625 81.96354 356.0 81.96354Q355.53125 81.96354 355.10938 82.21354Q354.70312 82.447914 354.51562 82.86979Q354.34375 83.27604 354.34375 84.010414L354.34375 87.416664L353.29688 87.416664ZM360.29688 80.041664L360.29688 78.822914L361.35938 78.822914L361.35938 80.041664L360.29688 80.041664ZM360.29688 87.416664L360.29688 81.197914L361.35938 81.197914L361.35938 87.416664L360.29688 87.416664ZM369.5625 84.40104L370.6875 84.697914Q370.32812 86.08854 369.40625 86.822914Q368.48438 87.55729 367.14062 87.55729Q365.75 87.55729 364.875 86.99479Q364.0 86.43229 363.54688 85.36979Q363.09375 84.291664 363.09375 83.05729Q363.09375 81.71354 363.60938 80.71354Q364.125 79.71354 365.0625 79.197914Q366.01562 78.68229 367.15625 78.68229Q368.4375 78.68229 369.3125 79.33854Q370.20312 79.99479 370.54688 81.18229L369.42188 81.447914Q369.125 80.510414 368.54688 80.08854Q367.98438 79.65104 367.125 79.65104Q366.14062 79.65104 365.46875 80.135414Q364.8125 80.604164 364.53125 81.40104Q364.26562 82.197914 364.26562 83.05729Q364.26562 84.15104 364.57812 84.96354Q364.90625 85.77604 365.57812 86.18229Q366.25 86.58854 367.04688 86.58854Q368.0 86.58854 368.65625 86.041664Q369.32812 85.49479 369.5625 84.40104ZM371.90625 84.30729Q371.90625 82.572914 372.85938 81.74479Q373.65625 81.05729 374.8125 81.05729Q376.09375 81.05729 376.90625 81.90104Q377.73438 82.729164 377.73438 84.21354Q377.73438 85.416664 377.375 86.104164Q377.01562 86.791664 376.3125 87.18229Q375.625 87.55729 374.8125 87.55729Q373.51562 87.55729 372.70312 86.729164Q371.90625 85.885414 371.90625 84.30729ZM372.98438 84.30729Q372.98438 85.49479 373.5 86.08854Q374.03125 86.68229 374.8125 86.68229Q375.60938 86.68229 376.125 86.08854Q376.64062 85.49479 376.64062 84.27604Q376.64062 83.11979 376.10938 82.52604Q375.59375 81.93229 374.8125 81.93229Q374.03125 81.93229 373.5 82.52604Q372.98438 83.104164 372.98438 84.30729ZM379.28125 87.416664L379.28125 81.197914L380.23438 81.197914L380.23438 82.135414Q380.59375 81.479164 380.89062 81.27604Q381.20312 81.05729 381.57812 81.05729Q382.10938 81.05729 382.65625 81.385414L382.29688 82.36979Q381.90625 82.135414 381.53125 82.135414Q381.17188 82.135414 380.89062 82.354164Q380.625 82.55729 380.51562 82.93229Q380.32812 83.49479 380.32812 84.15104L380.32812 87.416664L379.28125 87.416664ZM383.29688 89.80729L383.29688 81.197914L384.25 81.197914L384.25 81.99479Q384.59375 81.52604 385.01562 81.291664Q385.45312 81.05729 386.0625 81.05729Q386.85938 81.05729 387.46875 81.46354Q388.07812 81.86979 388.375 82.61979Q388.6875 83.36979 388.6875 84.260414Q388.6875 85.21354 388.34375 85.979164Q388.01562 86.74479 387.35938 87.15104Q386.70312 87.55729 385.98438 87.55729Q385.45312 87.55729 385.03125 87.33854Q384.60938 87.104164 384.34375 86.77604L384.34375 89.80729L383.29688 89.80729ZM384.25 84.33854Q384.25 85.541664 384.73438 86.11979Q385.21875 86.68229 385.90625 86.68229Q386.60938 86.68229 387.10938 86.08854Q387.60938 85.49479 387.60938 84.24479Q387.60938 83.05729 387.125 82.479164Q386.64062 81.885414 385.95312 81.885414Q385.28125 81.885414 384.76562 82.510414Q384.25 83.135414 384.25 84.33854Z" fill-rule="nonzero"/><path fill="#999999" d="M25.6125 58.034374L26.7375 58.33125Q26.378124 59.721874 25.45625 60.45625Q24.534374 61.190624 23.190624 61.190624Q21.8 61.190624 20.925 60.628124Q20.05 60.065624 19.596874 59.003124Q19.14375 57.925 19.14375 56.690624Q19.14375 55.346874 19.659374 54.346874Q20.175 53.346874 21.1125 52.83125Q22.065624 52.315624 23.20625 52.315624Q24.4875 52.315624 25.3625 52.971874Q26.253124 53.628124 26.596874 54.815624L25.471874 55.08125Q25.175 54.14375 24.596874 53.721874Q24.034374 53.284374 23.175 53.284374Q22.190624 53.284374 21.51875 53.76875Q20.8625 54.2375 20.58125 55.034374Q20.315624 55.83125 20.315624 56.690624Q20.315624 57.784374 20.628124 58.596874Q20.95625 59.409374 21.628124 59.815624Q22.3 60.221874 23.096874 60.221874Q24.05 60.221874 24.70625 59.675Q25.378124 59.128124 25.6125 58.034374ZM28.33125 61.05L28.33125 54.83125L29.284374 54.83125L29.284374 55.76875Q29.64375 55.1125 29.940624 54.909374Q30.253124 54.690624 30.628124 54.690624Q31.159374 54.690624 31.70625 55.01875L31.346874 56.003124Q30.95625 55.76875 30.58125 55.76875Q30.221874 55.76875 29.940624 55.9875Q29.675 56.190624 29.565624 56.565624Q29.378124 57.128124 29.378124 57.784374L29.378124 61.05L28.33125 61.05ZM36.596874 59.05L37.690624 59.175Q37.440624 60.128124 36.7375 60.659374Q36.034374 61.190624 34.95625 61.190624Q33.596874 61.190624 32.784374 60.346874Q31.9875 59.503124 31.9875 57.9875Q31.9875 56.425 32.8 55.565624Q33.6125 54.690624 34.89375 54.690624Q36.14375 54.690624 36.925 55.534374Q37.721874 56.378124 37.721874 57.925Q37.721874 58.01875 37.721874 58.20625L33.08125 58.20625Q33.14375 59.2375 33.659374 59.784374Q34.175 60.315624 34.95625 60.315624Q35.534374 60.315624 35.940624 60.01875Q36.3625 59.70625 36.596874 59.05ZM33.14375 57.346874L36.6125 57.346874Q36.55 56.55 36.221874 56.159374Q35.70625 55.55 34.909374 55.55Q34.175 55.55 33.675 56.034374Q33.190624 56.51875 33.14375 57.346874ZM43.378124 61.05L43.378124 60.26875Q42.784374 61.190624 41.64375 61.190624Q40.89375 61.190624 40.26875 60.784374Q39.64375 60.3625 39.3 59.628124Q38.95625 58.89375 38.95625 57.940624Q38.95625 57.01875 39.26875 56.253124Q39.58125 55.4875 40.20625 55.096874Q40.83125 54.690624 41.596874 54.690624Q42.159374 54.690624 42.596874 54.925Q43.034374 55.159374 43.315624 55.534374L43.315624 52.45625L44.3625 52.45625L44.3625 61.05L43.378124 61.05ZM40.05 57.940624Q40.05 59.14375 40.55 59.7375Q41.05 60.315624 41.7375 60.315624Q42.425 60.315624 42.909374 59.753124Q43.39375 59.190624 43.39375 58.034374Q43.39375 56.753124 42.89375 56.159374Q42.409374 55.565624 41.690624 55.565624Q40.9875 55.565624 40.51875 56.14375Q40.05 56.70625 40.05 57.940624ZM46.346874 53.675L46.346874 52.45625L47.409374 52.45625L47.409374 53.675L46.346874 53.675ZM46.346874 61.05L46.346874 54.83125L47.409374 54.83125L47.409374 61.05L46.346874 61.05ZM51.64375 60.1125L51.8 61.034374Q51.346874 61.128124 51.003124 61.128124Q50.425 61.128124 50.1125 60.95625Q49.8 60.76875 49.659374 60.471874Q49.534374 60.175 49.534374 59.221874L49.534374 55.64375L48.76875 55.64375L48.76875 54.83125L49.534374 54.83125L49.534374 53.284374L50.58125 52.659374L50.58125 54.83125L51.64375 54.83125L51.64375 55.64375L50.58125 55.64375L50.58125 59.284374Q50.58125 59.7375 50.628124 59.8625Q50.690624 59.9875 50.815624 60.065624Q50.940624 60.14375 51.175 60.14375Q51.3625 60.14375 51.64375 60.1125ZM52.628124 56.034374L52.628124 54.83125L53.83125 54.83125L53.83125 56.034374L52.628124 56.034374ZM52.628124 61.05L52.628124 59.846874L53.83125 59.846874L53.83125 61.05L52.628124 61.05ZM58.503124 61.05L58.503124 52.45625L64.70625 52.45625L64.70625 53.471874L59.64375 53.471874L59.64375 56.096874L64.39375 56.096874L64.39375 57.1125L59.64375 57.1125L59.64375 60.034374L64.90938 60.034374L64.90938 61.05L58.503124 61.05ZM66.3 63.440624L66.175 62.45625Q66.51875 62.55 66.78438 62.55Q67.12813 62.55 67.33125 62.425Q67.55 62.315624 67.69063 62.1125Q67.78438 61.940624 68.01875 61.315624Q68.03438 61.2375 68.1125 61.065624L65.7375 54.83125L66.87813 54.83125L68.175 58.425Q68.425 59.1125 68.62813 59.878124Q68.81563 59.14375 69.06563 58.45625L70.39375 54.83125L71.44063 54.83125L69.08125 61.159374Q68.69063 62.175 68.4875 62.565624Q68.20625 63.096874 67.83125 63.33125Q67.47188 63.58125 66.97188 63.58125Q66.675 63.58125 66.3 63.440624ZM75.40938 60.284374Q74.81563 60.784374 74.26875 60.9875Q73.7375 61.190624 73.1125 61.190624Q72.08125 61.190624 71.53438 60.690624Q70.9875 60.190624 70.9875 59.409374Q70.9875 58.95625 71.19063 58.58125Q71.39375 58.190624 71.7375 57.971874Q72.08125 57.7375 72.50313 57.628124Q72.8 57.534374 73.44063 57.45625Q74.70625 57.315624 75.31563 57.096874Q75.31563 56.878124 75.31563 56.83125Q75.31563 56.175 75.01875 55.909374Q74.6125 55.565624 73.81563 55.565624Q73.08125 55.565624 72.72188 55.83125Q72.3625 56.08125 72.19063 56.7375L71.15938 56.596874Q71.3 55.940624 71.62813 55.534374Q71.95625 55.128124 72.56563 54.909374Q73.175 54.690624 73.97188 54.690624Q74.76875 54.690624 75.26875 54.878124Q75.76875 55.065624 76.00313 55.346874Q76.2375 55.628124 76.33125 56.065624Q76.37813 56.33125 76.37813 57.034374L76.37813 58.440624Q76.37813 59.909374 76.44063 60.3Q76.51875 60.690624 76.72188 61.05L75.6125 61.05Q75.45625 60.721874 75.40938 60.284374ZM75.31563 57.925Q74.7375 58.159374 73.59688 58.33125Q72.94063 58.425 72.675 58.55Q72.40938 58.659374 72.25313 58.878124Q72.1125 59.096874 72.1125 59.378124Q72.1125 59.8 72.425 60.08125Q72.75313 60.3625 73.3625 60.3625Q73.97188 60.3625 74.44063 60.096874Q74.925 59.83125 75.14375 59.3625Q75.31563 59.003124 75.31563 58.315624L75.31563 57.925ZM78.33125 61.05L78.33125 54.83125L79.28438 54.83125L79.28438 55.76875Q79.64375 55.1125 79.94063 54.909374Q80.25313 54.690624 80.62813 54.690624Q81.15938 54.690624 81.70625 55.01875L81.34688 56.003124Q80.95625 55.76875 80.58125 55.76875Q80.22188 55.76875 79.94063 55.9875Q79.675 56.190624 79.56563 56.565624Q79.37813 57.128124 79.37813 57.784374L79.37813 61.05L78.33125 61.05ZM84.78438 61.05L84.78438 59.9875L89.19063 54.4875Q89.65938 53.909374 90.08125 53.471874L85.28438 53.471874L85.28438 52.45625L91.44063 52.45625L91.44063 53.471874L86.6125 59.425L86.09688 60.034374L91.58125 60.034374L91.58125 61.05L84.78438 61.05ZM92.34688 53.675L92.34688 52.45625L93.40938 52.45625L93.40938 53.675L92.34688 53.675ZM92.34688 61.05L92.34688 54.83125L93.40938 54.83125L93.40938 61.05L92.34688 61.05ZM95.31563 61.05L95.31563 52.45625L96.37813 52.45625L96.37813 61.05L95.31563 61.05ZM99.31563 61.05L98.33125 61.05L98.33125 52.45625L99.39375 52.45625L99.39375 55.51875Q100.06563 54.690624 101.09688 54.690624Q101.675 54.690624 102.175 54.925Q102.69063 55.14375 103.01875 55.565624Q103.3625 55.9875 103.55 56.58125Q103.7375 57.175 103.7375 57.846874Q103.7375 59.440624 102.94063 60.315624Q102.14375 61.190624 101.05 61.190624Q99.94063 61.190624 99.31563 60.26875L99.31563 61.05ZM99.3 57.89375Q99.3 59.003124 99.6125 59.503124Q100.1125 60.315624 100.95625 60.315624Q101.64375 60.315624 102.14375 59.721874Q102.65938 59.128124 102.65938 57.925Q102.65938 56.70625 102.175 56.128124Q101.69063 55.55 101.00313 55.55Q100.31563 55.55 99.8 56.159374Q99.3 56.753124 99.3 57.89375ZM109.59688 59.05L110.69063 59.175Q110.44063 60.128124 109.7375 60.659374Q109.03438 61.190624 107.95625 61.190624Q106.59688 61.190624 105.78438 60.346874Q104.9875 59.503124 104.9875 57.9875Q104.9875 56.425 105.8 55.565624Q106.6125 54.690624 107.89375 54.690624Q109.14375 54.690624 109.925 55.534374Q110.72188 56.378124 110.72188 57.925Q110.72188 58.01875 110.72188 58.20625L106.08125 58.20625Q106.14375 59.2375 106.65938 59.784374Q107.175 60.315624 107.95625 60.315624Q108.53438 60.315624 108.94063 60.01875Q109.3625 59.70625 109.59688 59.05ZM106.14375 57.346874L109.6125 57.346874Q109.55 56.55 109.22188 56.159374Q108.70625 55.55 107.90938 55.55Q107.175 55.55 106.675 56.034374Q106.19063 56.51875 106.14375 57.346874ZM112.33125 61.05L112.33125 54.83125L113.28438 54.83125L113.28438 55.76875Q113.64375 55.1125 113.94063 54.909374Q114.25313 54.690624 114.62813 54.690624Q115.15938 54.690624 115.70625 55.01875L115.34688 56.003124Q114.95625 55.76875 114.58125 55.76875Q114.22188 55.76875 113.94063 55.9875Q113.675 56.190624 113.56563 56.565624Q113.37813 57.128124 113.37813 57.784374L113.37813 61.05L112.33125 61.05ZM116.34688 61.05L116.34688 54.83125L117.28438 54.83125L117.28438 55.70625Q117.58125 55.2375 118.06563 54.971874Q118.55 54.690624 119.175 54.690624Q119.8625 54.690624 120.3 54.971874Q120.75313 55.253124 120.925 55.76875Q121.675 54.690624 122.84688 54.690624Q123.78438 54.690624 124.26875 55.20625Q124.76875 55.70625 124.76875 56.784374L124.76875 61.05L123.72188 61.05L123.72188 57.128124Q123.72188 56.503124 123.6125 56.221874Q123.51875 55.940624 123.25313 55.76875Q122.9875 55.596874 122.6125 55.596874Q121.95625 55.596874 121.51875 56.034374Q121.09688 56.471874 121.09688 57.440624L121.09688 61.05L120.03438 61.05L120.03438 57.003124Q120.03438 56.3 119.76875 55.95625Q119.51875 55.596874 118.94063 55.596874Q118.4875 55.596874 118.1125 55.83125Q117.7375 56.065624 117.56563 56.51875Q117.39375 56.971874 117.39375 57.815624L117.39375 61.05L116.34688 61.05ZM131.40938 60.284374Q130.81563 60.784374 130.26875 60.9875Q129.7375 61.190624 129.1125 61.190624Q128.08125 61.190624 127.53438 60.690624Q126.9875 60.190624 126.9875 59.409374Q126.9875 58.95625 127.19063 58.58125Q127.39375 58.190624 127.7375 57.971874Q128.08125 57.7375 128.50313 57.628124Q128.8 57.534374 129.44063 57.45625Q130.70625 57.315624 131.31563 57.096874Q131.31563 56.878124 131.31563 56.83125Q131.31563 56.175 131.01875 55.909374Q130.6125 55.565624 129.81563 55.565624Q129.08125 55.565624 128.72188 55.83125Q128.3625 56.08125 128.19063 56.7375L127.15938 56.596874Q127.3 55.940624 127.62813 55.534374Q127.95625 55.128124 128.56563 54.909374Q129.175 54.690624 129.97188 54.690624Q130.76875 54.690624 131.26875 54.878124Q131.76875 55.065624 132.00313 55.346874Q132.2375 55.628124 132.33125 56.065624Q132.37813 56.33125 132.37813 57.034374L132.37813 58.440624Q132.37813 59.909374 132.44063 60.3Q132.51875 60.690624 132.72188 61.05L131.6125 61.05Q131.45625 60.721874 131.40938 60.284374ZM131.31563 57.925Q130.7375 58.159374 129.59688 58.33125Q128.94063 58.425 128.675 58.55Q128.40938 58.659374 128.25313 58.878124Q128.1125 59.096874 128.1125 59.378124Q128.1125 59.8 128.425 60.08125Q128.75313 60.3625 129.3625 60.3625Q129.97188 60.3625 130.44063 60.096874Q130.925 59.83125 131.14375 59.3625Q131.31563 59.003124 131.31563 58.315624L131.31563 57.925ZM134.34688 61.05L134.34688 54.83125L135.28438 54.83125L135.28438 55.70625Q135.97188 54.690624 137.26875 54.690624Q137.83125 54.690624 138.3 54.89375Q138.78438 55.096874 139.01875 55.425Q139.25313 55.753124 139.34688 56.190624Q139.39375 56.4875 139.39375 57.221874L139.39375 61.05L138.34688 61.05L138.34688 57.26875Q138.34688 56.6125 138.22188 56.3Q138.09688 55.9875 137.78438 55.8Q137.47188 55.596874 137.05 55.596874Q136.37813 55.596874 135.87813 56.034374Q135.39375 56.45625 135.39375 57.64375L135.39375 61.05L134.34688 61.05Z" fill-rule="nonzero"/><path fill="#757575" d="M20.08125 37.55L20.08125 23.2375L22.01875 23.2375L29.534374 34.471874L29.534374 23.2375L31.346874 23.2375L31.346874 37.55L29.409374 37.55L21.89375 26.3L21.89375 37.55L20.08125 37.55ZM39.971874 34.20625L41.784374 34.440624Q41.3625 36.01875 40.190624 36.909374Q39.034374 37.784374 37.221874 37.784374Q34.95625 37.784374 33.6125 36.39375Q32.284374 34.9875 32.284374 32.45625Q32.284374 29.83125 33.628124 28.39375Q34.971874 26.940624 37.128124 26.940624Q39.20625 26.940624 40.51875 28.3625Q41.846874 29.76875 41.846874 32.346874Q41.846874 32.503124 41.83125 32.815624L34.096874 32.815624Q34.190624 34.51875 35.065624 35.425Q35.940624 36.33125 37.2375 36.33125Q38.20625 36.33125 38.878124 35.83125Q39.565624 35.315624 39.971874 34.20625ZM34.190624 31.3625L39.9875 31.3625Q39.878124 30.065624 39.33125 29.409374Q38.4875 28.39375 37.14375 28.39375Q35.940624 28.39375 35.1125 29.20625Q34.284374 30.003124 34.190624 31.3625ZM45.784374 37.55L42.6125 27.175L44.425 27.175L46.08125 33.159374L46.690624 35.39375Q46.7375 35.221874 47.221874 33.253124L48.878124 27.175L50.690624 27.175L52.2375 33.190624L52.753124 35.175L53.346874 33.175L55.128124 27.175L56.83125 27.175L53.596874 37.55L51.76875 37.55L50.1125 31.33125L49.721874 29.565624L47.6125 37.55L45.784374 37.55ZM58.83125 37.55L58.83125 23.2375L60.58125 23.2375L60.58125 37.55L58.83125 37.55ZM62.784374 41.55L62.596874 39.89375Q63.175 40.05 63.596874 40.05Q64.19063 40.05 64.53438 39.846874Q64.89375 39.659374 65.1125 39.315624Q65.28438 39.05 65.65938 38.003124Q65.70625 37.846874 65.81563 37.565624L61.878124 27.175L63.76875 27.175L65.925 33.190624Q66.34688 34.33125 66.675 35.58125Q66.9875 34.378124 67.39375 33.221874L69.6125 27.175L71.37813 27.175L67.425 37.721874Q66.8 39.440624 66.44063 40.08125Q65.97188 40.95625 65.3625 41.346874Q64.76875 41.753124 63.925 41.753124Q63.409374 41.753124 62.784374 41.55ZM78.22188 32.3625Q78.22188 29.4875 79.81563 28.096874Q81.15938 26.940624 83.08125 26.940624Q85.22188 26.940624 86.56563 28.346874Q87.925 29.753124 87.925 32.221874Q87.925 34.221874 87.33125 35.378124Q86.7375 36.51875 85.58125 37.159374Q84.44063 37.784374 83.08125 37.784374Q80.89375 37.784374 79.55 36.39375Q78.22188 34.9875 78.22188 32.3625ZM80.01875 32.3625Q80.01875 34.3625 80.87813 35.346874Q81.75313 36.33125 83.08125 36.33125Q84.39375 36.33125 85.25313 35.346874Q86.12813 34.346874 86.12813 32.3Q86.12813 30.378124 85.25313 29.39375Q84.37813 28.39375 83.08125 28.39375Q81.75313 28.39375 80.87813 29.39375Q80.01875 30.378124 80.01875 32.3625ZM89.8625 41.51875L89.8625 27.175L91.47188 27.175L91.47188 28.51875Q92.03438 27.7375 92.7375 27.346874Q93.45625 26.940624 94.47188 26.940624Q95.8 26.940624 96.81563 27.628124Q97.83125 28.315624 98.34688 29.565624Q98.87813 30.8 98.87813 32.284374Q98.87813 33.878124 98.3 35.159374Q97.7375 36.425 96.64375 37.1125Q95.55 37.784374 94.34688 37.784374Q93.47188 37.784374 92.76875 37.409374Q92.08125 37.034374 91.62813 36.471874L91.62813 41.51875L89.8625 41.51875ZM91.45625 32.425Q91.45625 34.425 92.26875 35.378124Q93.08125 36.33125 94.2375 36.33125Q95.40938 36.33125 96.2375 35.346874Q97.08125 34.3625 97.08125 32.26875Q97.08125 30.3 96.25313 29.315624Q95.44063 28.315624 94.31563 28.315624Q93.19063 28.315624 92.31563 29.378124Q91.45625 30.425 91.45625 32.425ZM107.97188 34.20625L109.78438 34.440624Q109.3625 36.01875 108.19063 36.909374Q107.03438 37.784374 105.22188 37.784374Q102.95625 37.784374 101.6125 36.39375Q100.28438 34.9875 100.28438 32.45625Q100.28438 29.83125 101.62813 28.39375Q102.97188 26.940624 105.12813 26.940624Q107.20625 26.940624 108.51875 28.3625Q109.84688 29.76875 109.84688 32.346874Q109.84688 32.503124 109.83125 32.815624L102.09688 32.815624Q102.19063 34.51875 103.06563 35.425Q103.94063 36.33125 105.2375 36.33125Q106.20625 36.33125 106.87813 35.83125Q107.56563 35.315624 107.97188 34.20625ZM102.19063 31.3625L107.9875 31.3625Q107.87813 30.065624 107.33125 29.409374Q106.4875 28.39375 105.14375 28.39375Q103.94063 28.39375 103.1125 29.20625Q102.28438 30.003124 102.19063 31.3625ZM111.8625 37.55L111.8625 27.175L113.45625 27.175L113.45625 28.659374Q114.59688 26.940624 116.75313 26.940624Q117.69063 26.940624 118.47188 27.284374Q119.26875 27.6125 119.65938 28.159374Q120.05 28.70625 120.20625 29.45625Q120.3 29.95625 120.3 31.175L120.3 37.55L118.53438 37.55L118.53438 31.2375Q118.53438 30.159374 118.33125 29.628124Q118.12813 29.096874 117.59688 28.784374Q117.08125 28.471874 116.37813 28.471874Q115.25313 28.471874 114.44063 29.190624Q113.62813 29.89375 113.62813 31.878124L113.62813 37.55L111.8625 37.55ZM128.97188 34.20625L130.78438 34.440624Q130.3625 36.01875 129.19063 36.909374Q128.03438 37.784374 126.22188 37.784374Q123.95625 37.784374 122.6125 36.39375Q121.28438 34.9875 121.28438 32.45625Q121.28438 29.83125 122.62813 28.39375Q123.97188 26.940624 126.12813 26.940624Q128.20625 26.940624 129.51875 28.3625Q130.84688 29.76875 130.84688 32.346874Q130.84688 32.503124 130.83125 32.815624L123.09688 32.815624Q123.19063 34.51875 124.06563 35.425Q124.94063 36.33125 126.2375 36.33125Q127.20625 36.33125 127.87813 35.83125Q128.56563 35.315624 128.97188 34.20625ZM123.19063 31.3625L128.9875 31.3625Q128.87813 30.065624 128.33125 29.409374Q127.4875 28.39375 126.14375 28.39375Q124.94063 28.39375 124.1125 29.20625Q123.28438 30.003124 123.19063 31.3625ZM139.59688 37.55L139.59688 36.2375Q138.6125 37.784374 136.69063 37.784374Q135.45625 37.784374 134.40938 37.096874Q133.37813 36.409374 132.8 35.190624Q132.2375 33.971874 132.2375 32.378124Q132.2375 30.815624 132.75313 29.55Q133.26875 28.284374 134.3 27.6125Q135.34688 26.940624 136.6125 26.940624Q137.55 26.940624 138.28438 27.346874Q139.01875 27.7375 139.4875 28.3625L139.4875 23.2375L141.22188 23.2375L141.22188 37.55L139.59688 37.55ZM134.03438 32.378124Q134.03438 34.3625 134.87813 35.346874Q135.72188 36.33125 136.8625 36.33125Q138.01875 36.33125 138.81563 35.39375Q139.62813 34.45625 139.62813 32.51875Q139.62813 30.39375 138.8 29.39375Q137.9875 28.39375 136.78438 28.39375Q135.6125 28.39375 134.81563 29.3625Q134.03438 30.315624 134.03438 32.378124ZM150.09688 37.55L150.09688 23.2375L155.4875 23.2375Q156.925 23.2375 157.675 23.3625Q158.72188 23.55 159.44063 24.05Q160.15938 24.534374 160.58125 25.425Q161.01875 26.315624 161.01875 27.378124Q161.01875 29.20625 159.84688 30.471874Q158.69063 31.721874 155.65938 31.721874L151.9875 31.721874L151.9875 37.55L150.09688 37.55ZM151.9875 30.034374L155.69063 30.034374Q157.51875 30.034374 158.28438 29.3625Q159.06563 28.675 159.06563 27.425Q159.06563 26.534374 158.6125 25.89375Q158.15938 25.253124 157.425 25.05Q156.94063 24.925 155.64375 24.925L151.9875 24.925L151.9875 30.034374ZM163.12813 37.55L163.12813 23.2375L169.47188 23.2375Q171.37813 23.2375 172.37813 23.628124Q173.37813 24.003124 173.97188 24.9875Q174.56563 25.95625 174.56563 27.14375Q174.56563 28.659374 173.58125 29.70625Q172.59688 30.753124 170.53438 31.034374Q171.28438 31.39375 171.675 31.753124Q172.50313 32.503124 173.25313 33.659374L175.7375 37.55L173.3625 37.55L171.45625 34.565624Q170.62813 33.284374 170.09688 32.596874Q169.56563 31.909374 169.12813 31.64375Q168.70625 31.3625 168.26875 31.253124Q167.94063 31.190624 167.22188 31.190624L165.01875 31.190624L165.01875 37.55L163.12813 37.55ZM165.01875 29.55L169.09688 29.55Q170.39375 29.55 171.1125 29.284374Q171.84688 29.01875 172.22188 28.425Q172.6125 27.83125 172.6125 27.14375Q172.6125 26.128124 171.87813 25.471874Q171.14375 24.815624 169.55 24.815624L165.01875 24.815624L165.01875 29.55ZM176.15938 34.45625L177.90938 34.175Q178.05 35.221874 178.72188 35.784374Q179.39375 36.33125 180.59688 36.33125Q181.8 36.33125 182.37813 35.846874Q182.97188 35.346874 182.97188 34.690624Q182.97188 34.096874 182.45625 33.753124Q182.09688 33.51875 180.65938 33.159374Q178.72188 32.659374 177.97188 32.315624Q177.2375 31.95625 176.84688 31.33125Q176.45625 30.690624 176.45625 29.925Q176.45625 29.2375 176.76875 28.64375Q177.09688 28.05 177.64375 27.659374Q178.05 27.3625 178.75313 27.159374Q179.47188 26.940624 180.28438 26.940624Q181.50313 26.940624 182.425 27.3Q183.34688 27.64375 183.78438 28.253124Q184.22188 28.846874 184.39375 29.846874L182.675 30.08125Q182.55 29.284374 181.9875 28.846874Q181.425 28.39375 180.40938 28.39375Q179.19063 28.39375 178.675 28.8Q178.15938 29.190624 178.15938 29.721874Q178.15938 30.065624 178.37813 30.346874Q178.58125 30.628124 179.05 30.815624Q179.31563 30.909374 180.59688 31.253124Q182.47188 31.753124 183.20625 32.08125Q183.94063 32.39375 184.3625 33.003124Q184.78438 33.596874 184.78438 34.503124Q184.78438 35.378124 184.26875 36.159374Q183.75313 36.940624 182.78438 37.3625Q181.81563 37.784374 180.59688 37.784374Q178.58125 37.784374 177.51875 36.940624Q176.45625 36.096874 176.15938 34.45625ZM192.39375 33.76875L194.14375 33.534374Q194.45625 35.034374 195.175 35.690624Q195.90938 36.346874 196.95625 36.346874Q198.19063 36.346874 199.03438 35.4875Q199.89375 34.628124 199.89375 33.3625Q199.89375 32.14375 199.09688 31.3625Q198.31563 30.58125 197.09688 30.58125Q196.59688 30.58125 195.8625 30.76875L196.05 29.221874Q196.22188 29.253124 196.33125 29.253124Q197.45625 29.253124 198.34688 28.675Q199.25313 28.08125 199.25313 26.8625Q199.25313 25.89375 198.59688 25.253124Q197.94063 24.6125 196.90938 24.6125Q195.89375 24.6125 195.20625 25.26875Q194.51875 25.909374 194.33125 27.190624L192.56563 26.878124Q192.89375 25.1125 194.03438 24.14375Q195.175 23.175 196.87813 23.175Q198.05 23.175 199.03438 23.675Q200.01875 24.175 200.53438 25.05Q201.06563 25.925 201.06563 26.89375Q201.06563 27.815624 200.56563 28.58125Q200.06563 29.346874 199.09688 29.8Q200.3625 30.08125 201.06563 31.01875Q201.76875 31.940624 201.76875 33.315624Q201.76875 35.190624 200.39375 36.503124Q199.03438 37.8 196.94063 37.8Q195.05 37.8 193.8 36.675Q192.56563 35.55 192.39375 33.76875ZM203.37813 30.4875Q203.37813 27.95625 203.89375 26.409374Q204.425 24.846874 205.45625 24.01875Q206.4875 23.175 208.05 23.175Q209.20625 23.175 210.06563 23.64375Q210.94063 24.096874 211.50313 24.971874Q212.06563 25.846874 212.39375 27.1125Q212.72188 28.3625 212.72188 30.4875Q212.72188 33.003124 212.19063 34.55Q211.675 36.096874 210.64375 36.95625Q209.62813 37.8 208.05 37.8Q205.97188 37.8 204.8 36.315624Q203.37813 34.51875 203.37813 30.4875ZM205.19063 30.4875Q205.19063 34.01875 206.00313 35.190624Q206.83125 36.346874 208.05 36.346874Q209.25313 36.346874 210.08125 35.175Q210.90938 34.003124 210.90938 30.4875Q210.90938 26.95625 210.08125 25.8Q209.25313 24.628124 208.03438 24.628124Q206.81563 24.628124 206.09688 25.659374Q205.19063 26.95625 205.19063 30.4875ZM221.59688 37.55L221.59688 36.2375Q220.6125 37.784374 218.69063 37.784374Q217.45625 37.784374 216.40938 37.096874Q215.37813 36.409374 214.8 35.190624Q214.2375 33.971874 214.2375 32.378124Q214.2375 30.815624 214.75313 29.55Q215.26875 28.284374 216.3 27.6125Q217.34688 26.940624 218.6125 26.940624Q219.55 26.940624 220.28438 27.346874Q221.01875 27.7375 221.4875 28.3625L221.4875 23.2375L223.22188 23.2375L223.22188 37.55L221.59688 37.55ZM216.03438 32.378124Q216.03438 34.3625 216.87813 35.346874Q217.72188 36.33125 218.8625 36.33125Q220.01875 36.33125 220.81563 35.39375Q221.62813 34.45625 221.62813 32.51875Q221.62813 30.39375 220.8 29.39375Q219.9875 28.39375 218.78438 28.39375Q217.6125 28.39375 216.81563 29.3625Q216.03438 30.315624 216.03438 32.378124ZM233.4875 37.55L231.8625 37.55L231.8625 23.2375L233.6125 23.2375L233.6125 28.346874Q234.7375 26.940624 236.45625 26.940624Q237.40938 26.940624 238.26875 27.33125Q239.12813 27.721874 239.675 28.425Q240.22188 29.1125 240.53438 30.096874Q240.84688 31.08125 240.84688 32.20625Q240.84688 34.878124 239.53438 36.33125Q238.22188 37.784374 236.37813 37.784374Q234.53438 37.784374 233.4875 36.253124L233.4875 37.55ZM233.47188 32.284374Q233.47188 34.14375 233.97188 34.9875Q234.81563 36.33125 236.22188 36.33125Q237.37813 36.33125 238.20625 35.33125Q239.05 34.33125 239.05 32.346874Q239.05 30.315624 238.2375 29.3625Q237.44063 28.39375 236.3 28.39375Q235.14375 28.39375 234.3 29.39375Q233.47188 30.39375 233.47188 32.284374ZM249.97188 34.20625L251.78438 34.440624Q251.3625 36.01875 250.19063 36.909374Q249.03438 37.784374 247.22188 37.784374Q244.95625 37.784374 243.6125 36.39375Q242.28438 34.9875 242.28438 32.45625Q242.28438 29.83125 243.62813 28.39375Q244.97188 26.940624 247.12813 26.940624Q249.20625 26.940624 250.51875 28.3625Q251.84688 29.76875 251.84688 32.346874Q251.84688 32.503124 251.83125 32.815624L244.09688 32.815624Q244.19063 34.51875 245.06563 35.425Q245.94063 36.33125 247.2375 36.33125Q248.20625 36.33125 248.87813 35.83125Q249.56563 35.315624 249.97188 34.20625ZM244.19063 31.3625L249.9875 31.3625Q249.87813 30.065624 249.33125 29.409374Q248.4875 28.39375 247.14375 28.39375Q245.94063 28.39375 245.1125 29.20625Q244.28438 30.003124 244.19063 31.3625ZM254.28438 37.55L254.28438 28.55L252.7375 28.55L252.7375 27.175L254.28438 27.175L254.28438 26.08125Q254.28438 25.034374 254.47188 24.51875Q254.72188 23.83125 255.3625 23.409374Q256.0031 22.9875 257.15936 22.9875Q257.90936 22.9875 258.8 23.159374L258.53436 24.690624Q257.9875 24.596874 257.5031 24.596874Q256.70624 24.596874 256.3625 24.940624Q256.03436 25.284374 256.03436 26.221874L256.03436 27.175L258.0656 27.175L258.0656 28.55L256.03436 28.55L256.03436 37.55L254.28438 37.55ZM259.22186 32.3625Q259.22186 29.4875 260.8156 28.096874Q262.15936 26.940624 264.08124 26.940624Q266.22186 26.940624 267.5656 28.346874Q268.925 29.753124 268.925 32.221874Q268.925 34.221874 268.33124 35.378124Q267.7375 36.51875 266.58124 37.159374Q265.4406 37.784374 264.08124 37.784374Q261.89374 37.784374 260.55 36.39375Q259.22186 34.9875 259.22186 32.3625ZM261.01874 32.3625Q261.01874 34.3625 261.8781 35.346874Q262.7531 36.33125 264.08124 36.33125Q265.39374 36.33125 266.2531 35.346874Q267.1281 34.346874 267.1281 32.3Q267.1281 30.378124 266.2531 29.39375Q265.3781 28.39375 264.08124 28.39375Q262.7531 28.39375 261.8781 29.39375Q261.01874 30.378124 261.01874 32.3625ZM270.84686 37.55L270.84686 27.175L272.425 27.175L272.425 28.753124Q273.03436 27.64375 273.55 27.3Q274.0656 26.940624 274.675 26.940624Q275.5656 26.940624 276.4875 27.503124L275.8781 29.14375Q275.2375 28.753124 274.59686 28.753124Q274.01874 28.753124 273.55 29.1125Q273.09686 29.45625 272.89374 30.065624Q272.6125 31.003124 272.6125 32.1125L272.6125 37.55L270.84686 37.55ZM284.97186 34.20625L286.78436 34.440624Q286.3625 36.01875 285.1906 36.909374Q284.03436 37.784374 282.22186 37.784374Q279.95624 37.784374 278.6125 36.39375Q277.28436 34.9875 277.28436 32.45625Q277.28436 29.83125 278.6281 28.39375Q279.97186 26.940624 282.1281 26.940624Q284.20624 26.940624 285.51874 28.3625Q286.84686 29.76875 286.84686 32.346874Q286.84686 32.503124 286.83124 32.815624L279.09686 32.815624Q279.1906 34.51875 280.0656 35.425Q280.9406 36.33125 282.2375 36.33125Q283.20624 36.33125 283.8781 35.83125Q284.5656 35.315624 284.97186 34.20625ZM279.1906 31.3625L284.9875 31.3625Q284.8781 30.065624 284.33124 29.409374Q283.4875 28.39375 282.14374 28.39375Q280.9406 28.39375 280.1125 29.20625Q279.28436 30.003124 279.1906 31.3625ZM303.05 35.8625Q302.1906 36.83125 301.15936 37.315624Q300.1281 37.8 298.9406 37.8Q296.7375 37.8 295.45624 36.315624Q294.40936 35.096874 294.40936 33.596874Q294.40936 32.26875 295.2531 31.20625Q296.1125 30.14375 297.8156 29.33125Q296.84686 28.20625 296.51874 27.51875Q296.20624 26.83125 296.20624 26.175Q296.20624 24.89375 297.20624 23.940624Q298.22186 22.9875 299.76874 22.9875Q301.22186 22.9875 302.15936 23.89375Q303.09686 24.784374 303.09686 26.05Q303.09686 28.08125 300.39374 29.534374L302.95624 32.8Q303.39374 31.940624 303.64374 30.815624L305.47186 31.20625Q305.0031 33.08125 304.1906 34.284374Q305.175 35.596874 306.425 36.4875L305.2531 37.878124Q304.1906 37.190624 303.05 35.8625ZM299.47186 28.39375Q300.6281 27.721874 300.95624 27.221874Q301.3 26.70625 301.3 26.096874Q301.3 25.3625 300.83124 24.909374Q300.3625 24.440624 299.675 24.440624Q298.95624 24.440624 298.4875 24.89375Q298.01874 25.346874 298.01874 26.01875Q298.01874 26.346874 298.1906 26.721874Q298.3625 27.08125 298.6906 27.4875L299.47186 28.39375ZM301.95624 34.471874L298.72186 30.471874Q297.3 31.33125 296.8 32.065624Q296.3 32.784374 296.3 33.503124Q296.3 34.3625 296.9875 35.3Q297.6906 36.2375 298.95624 36.2375Q299.7531 36.2375 300.59686 35.753124Q301.4406 35.253124 301.95624 34.471874ZM320.64374 36.26875Q319.65936 37.096874 318.7531 37.440624Q317.84686 37.784374 316.8156 37.784374Q315.1125 37.784374 314.1906 36.95625Q313.26874 36.1125 313.26874 34.815624Q313.26874 34.05 313.6125 33.425Q313.97186 32.8 314.53436 32.425Q315.09686 32.034374 315.8 31.83125Q316.3156 31.70625 317.3625 31.565624Q319.4875 31.315624 320.4875 30.971874Q320.5031 30.6125 320.5031 30.503124Q320.5031 29.440624 320.0031 28.9875Q319.33124 28.39375 318.0031 28.39375Q316.7531 28.39375 316.15936 28.83125Q315.58124 29.26875 315.3 30.378124L313.58124 30.14375Q313.8156 29.034374 314.34686 28.3625Q314.8781 27.675 315.89374 27.315624Q316.90936 26.940624 318.2531 26.940624Q319.58124 26.940624 320.40936 27.253124Q321.2375 27.565624 321.6281 28.05Q322.01874 28.51875 322.175 29.2375Q322.26874 29.690624 322.26874 30.8625L322.26874 33.20625Q322.26874 35.659374 322.3781 36.315624Q322.4875 36.95625 322.83124 37.55L320.9875 37.55Q320.72186 37.003124 320.64374 36.26875ZM320.4875 32.346874Q319.53436 32.7375 317.6125 33.003124Q316.53436 33.159374 316.08124 33.3625Q315.64374 33.55 315.39374 33.925Q315.14374 34.3 315.14374 34.76875Q315.14374 35.471874 315.675 35.940624Q316.20624 36.409374 317.2375 36.409374Q318.2531 36.409374 319.03436 35.971874Q319.83124 35.51875 320.20624 34.753124Q320.4875 34.14375 320.4875 32.9875L320.4875 32.346874ZM325.28436 37.55L325.28436 28.55L323.7375 28.55L323.7375 27.175L325.28436 27.175L325.28436 26.08125Q325.28436 25.034374 325.47186 24.51875Q325.72186 23.83125 326.3625 23.409374Q327.0031 22.9875 328.15936 22.9875Q328.90936 22.9875 329.8 23.159374L329.53436 24.690624Q328.9875 24.596874 328.5031 24.596874Q327.70624 24.596874 327.3625 24.940624Q327.03436 25.284374 327.03436 26.221874L327.03436 27.175L329.0656 27.175L329.0656 28.55L327.03436 28.55L327.03436 37.55L325.28436 37.55ZM334.70624 35.971874L334.95624 37.534374Q334.22186 37.690624 333.6281 37.690624Q332.675 37.690624 332.14374 37.39375Q331.6281 37.08125 331.40936 36.596874Q331.1906 36.096874 331.1906 34.51875L331.1906 28.55L329.90936 28.55L329.90936 27.175L331.1906 27.175L331.1906 24.6125L332.9406 23.55L332.9406 27.175L334.70624 27.175L334.70624 28.55L332.9406 28.55L332.9406 34.6125Q332.9406 35.3625 333.03436 35.58125Q333.1281 35.784374 333.33124 35.925Q333.55 36.05 333.9406 36.05Q334.22186 36.05 334.70624 35.971874ZM343.97186 34.20625L345.78436 34.440624Q345.3625 36.01875 344.1906 36.909374Q343.03436 37.784374 341.22186 37.784374Q338.95624 37.784374 337.6125 36.39375Q336.28436 34.9875 336.28436 32.45625Q336.28436 29.83125 337.6281 28.39375Q338.97186 26.940624 341.1281 26.940624Q343.20624 26.940624 344.51874 28.3625Q345.84686 29.76875 345.84686 32.346874Q345.84686 32.503124 345.83124 32.815624L338.09686 32.815624Q338.1906 34.51875 339.0656 35.425Q339.9406 36.33125 341.2375 36.33125Q342.20624 36.33125 342.8781 35.83125Q343.5656 35.315624 343.97186 34.20625ZM338.1906 31.3625L343.9875 31.3625Q343.8781 30.065624 343.33124 29.409374Q342.4875 28.39375 341.14374 28.39375Q339.9406 28.39375 339.1125 29.20625Q338.28436 30.003124 338.1906 31.3625ZM347.84686 37.55L347.84686 27.175L349.425 27.175L349.425 28.753124Q350.03436 27.64375 350.55 27.3Q351.0656 26.940624 351.675 26.940624Q352.5656 26.940624 353.4875 27.503124L352.8781 29.14375Q352.2375 28.753124 351.59686 28.753124Q351.01874 28.753124 350.55 29.1125Q350.09686 29.45625 349.89374 30.065624Q349.6125 31.003124 349.6125 32.1125L349.6125 37.55L347.84686 37.55ZM360.83124 37.55L360.83124 23.2375L362.58124 23.2375L362.58124 37.55L360.83124 37.55ZM364.8781 25.253124L364.8781 23.2375L366.64374 23.2375L366.64374 25.253124L364.8781 25.253124ZM364.8781 37.55L364.8781 27.175L366.64374 27.175L366.64374 37.55L364.8781 37.55ZM375.64374 33.753124L377.3625 33.971874Q377.08124 35.76875 375.90936 36.784374Q374.7531 37.784374 373.05 37.784374Q370.925 37.784374 369.6281 36.39375Q368.33124 35.003124 368.33124 32.409374Q368.33124 30.721874 368.8781 29.471874Q369.4406 28.20625 370.58124 27.58125Q371.72186 26.940624 373.0656 26.940624Q374.7531 26.940624 375.8156 27.8Q376.89374 28.659374 377.20624 30.221874L375.4875 30.4875Q375.2531 29.440624 374.6281 28.925Q374.0031 28.39375 373.1281 28.39375Q371.8 28.39375 370.97186 29.346874Q370.14374 30.3 370.14374 32.346874Q370.14374 34.440624 370.9406 35.39375Q371.7375 36.33125 373.03436 36.33125Q374.0656 36.33125 374.7531 35.70625Q375.45624 35.065624 375.64374 33.753124ZM385.97186 34.20625L387.78436 34.440624Q387.3625 36.01875 386.1906 36.909374Q385.03436 37.784374 383.22186 37.784374Q380.95624 37.784374 379.6125 36.39375Q378.28436 34.9875 378.28436 32.45625Q378.28436 29.83125 379.6281 28.39375Q380.97186 26.940624 383.1281 26.940624Q385.20624 26.940624 386.51874 28.3625Q387.84686 29.76875 387.84686 32.346874Q387.84686 32.503124 387.83124 32.815624L380.09686 32.815624Q380.1906 34.51875 381.0656 35.425Q381.9406 36.33125 383.2375 36.33125Q384.20624 36.33125 384.8781 35.83125Q385.5656 35.315624 385.97186 34.20625ZM380.1906 31.3625L385.9875 31.3625Q385.8781 30.065624 385.33124 29.409374Q384.4875 28.39375 383.14374 28.39375Q381.9406 28.39375 381.1125 29.20625Q380.28436 30.003124 380.1906 31.3625ZM389.8625 37.55L389.8625 27.175L391.45624 27.175L391.45624 28.659374Q392.59686 26.940624 394.7531 26.940624Q395.6906 26.940624 396.47186 27.284374Q397.26874 27.6125 397.65936 28.159374Q398.05 28.70625 398.20624 29.45625Q398.3 29.95625 398.3 31.175L398.3 37.55L396.53436 37.55L396.53436 31.2375Q396.53436 30.159374 396.33124 29.628124Q396.1281 29.096874 395.59686 28.784374Q395.08124 28.471874 394.3781 28.471874Q393.2531 28.471874 392.4406 29.190624Q391.6281 29.89375 391.6281 31.878124L391.6281 37.55L389.8625 37.55ZM399.15936 34.45625L400.90936 34.175Q401.05 35.221874 401.72186 35.784374Q402.39374 36.33125 403.59686 36.33125Q404.8 36.33125 405.3781 35.846874Q405.97186 35.346874 405.97186 34.690624Q405.97186 34.096874 405.45624 33.753124Q405.09686 33.51875 403.65936 33.159374Q401.72186 32.659374 400.97186 32.315624Q400.2375 31.95625 399.84686 31.33125Q399.45624 30.690624 399.45624 29.925Q399.45624 29.2375 399.76874 28.64375Q400.09686 28.05 400.64374 27.659374Q401.05 27.3625 401.7531 27.159374Q402.47186 26.940624 403.28436 26.940624Q404.5031 26.940624 405.425 27.3Q406.34686 27.64375 406.78436 28.253124Q407.22186 28.846874 407.39374 29.846874L405.675 30.08125Q405.55 29.284374 404.9875 28.846874Q404.425 28.39375 403.40936 28.39375Q402.1906 28.39375 401.675 28.8Q401.15936 29.190624 401.15936 29.721874Q401.15936 30.065624 401.3781 30.346874Q401.58124 30.628124 402.05 30.815624Q402.3156 30.909374 403.59686 31.253124Q405.47186 31.753124 406.20624 32.08125Q406.9406 32.39375 407.3625 33.003124Q407.78436 33.596874 407.78436 34.503124Q407.78436 35.378124 407.26874 36.159374Q406.7531 36.940624 405.78436 37.3625Q404.8156 37.784374 403.59686 37.784374Q401.58124 37.784374 400.51874 36.940624Q399.45624 36.096874 399.15936 34.45625ZM416.97186 34.20625L418.78436 34.440624Q418.3625 36.01875 417.1906 36.909374Q416.03436 37.784374 414.22186 37.784374Q411.95624 37.784374 410.6125 36.39375Q409.28436 34.9875 409.28436 32.45625Q409.28436 29.83125 410.6281 28.39375Q411.97186 26.940624 414.1281 26.940624Q416.20624 26.940624 417.51874 28.3625Q418.84686 29.76875 418.84686 32.346874Q418.84686 32.503124 418.83124 32.815624L411.09686 32.815624Q411.1906 34.51875 412.0656 35.425Q412.9406 36.33125 414.2375 36.33125Q415.20624 36.33125 415.8781 35.83125Q416.5656 35.315624 416.97186 34.20625ZM411.1906 31.3625L416.9875 31.3625Q416.8781 30.065624 416.33124 29.409374Q415.4875 28.39375 414.14374 28.39375Q412.9406 28.39375 412.1125 29.20625Q411.28436 30.003124 411.1906 31.3625ZM433.64374 33.753124L435.3625 33.971874Q435.08124 35.76875 433.90936 36.784374Q432.7531 37.784374 431.05 37.784374Q428.925 37.784374 427.6281 36.39375Q426.33124 35.003124 426.33124 32.409374Q426.33124 30.721874 426.8781 29.471874Q427.4406 28.20625 428.58124 27.58125Q429.72186 26.940624 431.0656 26.940624Q432.7531 26.940624 433.8156 27.8Q434.89374 28.659374 435.20624 30.221874L433.4875 30.4875Q433.2531 29.440624 432.6281 28.925Q432.0031 28.39375 431.1281 28.39375Q429.8 28.39375 428.97186 29.346874Q428.14374 30.3 428.14374 32.346874Q428.14374 34.440624 428.9406 35.39375Q429.7375 36.33125 431.03436 36.33125Q432.0656 36.33125 432.7531 35.70625Q433.45624 35.065624 433.64374 33.753124ZM436.8625 37.55L436.8625 23.2375L438.6281 23.2375L438.6281 28.3625Q439.8625 26.940624 441.7375 26.940624Q442.8781 26.940624 443.72186 27.39375Q444.58124 27.846874 444.9406 28.659374Q445.3156 29.45625 445.3156 30.971874L445.3156 37.55L443.5656 37.55L443.5656 30.971874Q443.5656 29.659374 442.9875 29.065624Q442.40936 28.45625 441.3781 28.45625Q440.59686 28.45625 439.89374 28.8625Q439.20624 29.26875 438.90936 29.971874Q438.6281 30.659374 438.6281 31.878124L438.6281 37.55L436.8625 37.55ZM453.64374 36.26875Q452.65936 37.096874 451.7531 37.440624Q450.84686 37.784374 449.8156 37.784374Q448.1125 37.784374 447.1906 36.95625Q446.26874 36.1125 446.26874 34.815624Q446.26874 34.05 446.6125 33.425Q446.97186 32.8 447.53436 32.425Q448.09686 32.034374 448.8 31.83125Q449.3156 31.70625 450.3625 31.565624Q452.4875 31.315624 453.4875 30.971874Q453.5031 30.6125 453.5031 30.503124Q453.5031 29.440624 453.0031 28.9875Q452.33124 28.39375 451.0031 28.39375Q449.7531 28.39375 449.15936 28.83125Q448.58124 29.26875 448.3 30.378124L446.58124 30.14375Q446.8156 29.034374 447.34686 28.3625Q447.8781 27.675 448.89374 27.315624Q449.90936 26.940624 451.2531 26.940624Q452.58124 26.940624 453.40936 27.253124Q454.2375 27.565624 454.6281 28.05Q455.01874 28.51875 455.175 29.2375Q455.26874 29.690624 455.26874 30.8625L455.26874 33.20625Q455.26874 35.659374 455.3781 36.315624Q455.4875 36.95625 455.83124 37.55L453.9875 37.55Q453.72186 37.003124 453.64374 36.26875ZM453.4875 32.346874Q452.53436 32.7375 450.6125 33.003124Q449.53436 33.159374 449.08124 33.3625Q448.64374 33.55 448.39374 33.925Q448.14374 34.3 448.14374 34.76875Q448.14374 35.471874 448.675 35.940624Q449.20624 36.409374 450.2375 36.409374Q451.2531 36.409374 452.03436 35.971874Q452.83124 35.51875 453.20624 34.753124Q453.4875 34.14375 453.4875 32.9875L453.4875 32.346874ZM457.8625 37.55L457.8625 27.175L459.45624 27.175L459.45624 28.659374Q460.59686 26.940624 462.7531 26.940624Q463.6906 26.940624 464.47186 27.284374Q465.26874 27.6125 465.65936 28.159374Q466.05 28.70625 466.20624 29.45625Q466.3 29.95625 466.3 31.175L466.3 37.55L464.53436 37.55L464.53436 31.2375Q464.53436 30.159374 464.33124 29.628124Q464.1281 29.096874 463.59686 28.784374Q463.08124 28.471874 462.3781 28.471874Q461.2531 28.471874 460.4406 29.190624Q459.6281 29.89375 459.6281 31.878124L459.6281 37.55L457.8625 37.55ZM467.55 38.409374L469.2531 38.659374Q469.3625 39.45625 469.84686 39.815624Q470.5031 40.3 471.64374 40.3Q472.8625 40.3 473.51874 39.815624Q474.1906 39.33125 474.425 38.45625Q474.5656 37.909374 474.55 36.190624Q473.39374 37.55 471.675 37.55Q469.53436 37.55 468.3625 36.003124Q467.1906 34.45625 467.1906 32.3Q467.1906 30.815624 467.72186 29.565624Q468.26874 28.315624 469.28436 27.628124Q470.3156 26.940624 471.6906 26.940624Q473.51874 26.940624 474.72186 28.425L474.72186 27.175L476.33124 27.175L476.33124 36.14375Q476.33124 38.565624 475.83124 39.565624Q475.34686 40.58125 474.26874 41.159374Q473.20624 41.753124 471.64374 41.753124Q469.8 41.753124 468.64374 40.925Q467.5031 40.096874 467.55 38.409374ZM469.0031 32.175Q469.0031 34.221874 469.8156 35.159374Q470.6281 36.096874 471.84686 36.096874Q473.05 36.096874 473.8625 35.159374Q474.6906 34.221874 474.6906 32.2375Q474.6906 30.33125 473.84686 29.3625Q473.0031 28.39375 471.8156 28.39375Q470.64374 28.39375 469.8156 29.346874Q469.0031 30.3 469.0031 32.175ZM485.97186 34.20625L487.78436 34.440624Q487.3625 36.01875 486.1906 36.909374Q485.03436 37.784374 483.22186 37.784374Q480.95624 37.784374 479.6125 36.39375Q478.28436 34.9875 478.28436 32.45625Q478.28436 29.83125 479.6281 28.39375Q480.97186 26.940624 483.1281 26.940624Q485.20624 26.940624 486.51874 28.3625Q487.84686 29.76875 487.84686 32.346874Q487.84686 32.503124 487.83124 32.815624L480.09686 32.815624Q480.1906 34.51875 481.0656 35.425Q481.9406 36.33125 483.2375 36.33125Q484.20624 36.33125 484.8781 35.83125Q485.5656 35.315624 485.97186 34.20625ZM480.1906 31.3625L485.9875 31.3625Q485.8781 30.065624 485.33124 29.409374Q484.4875 28.39375 483.14374 28.39375Q481.9406 28.39375 481.1125 29.20625Q480.28436 30.003124 480.1906 31.3625Z" fill-rule="nonzero"/></svg>